<svg width="128" height="120" viewBox="0 0 128 120" fill="none" xmlns="http://www.w3.org/2000/svg">
<g filter="url(#filter0_d_48_55891)">
<rect x="36" y="12" width="48" height="48" rx="6" fill="white"/>
<path d="M62 26.2695V30.4C62 30.9601 62 31.2401 62.109 31.454C62.2049 31.6422 62.3578 31.7951 62.546 31.891C62.7599 32 63.0399 32 63.6 32H67.7305M68 33.9882V41.2C68 42.8802 68 43.7202 67.673 44.362C67.3854 44.9265 66.9265 45.3854 66.362 45.673C65.7202 46 64.8802 46 63.2 46H56.8C55.1198 46 54.2798 46 53.638 45.673C53.0735 45.3854 52.6146 44.9265 52.327 44.362C52 43.7202 52 42.8802 52 41.2V30.8C52 29.1198 52 28.2798 52.327 27.638C52.6146 27.0735 53.0735 26.6146 53.638 26.327C54.2798 26 55.1198 26 56.8 26H60.0118C60.7455 26 61.1124 26 61.4577 26.0829C61.7638 26.1564 62.0564 26.2776 62.3249 26.4421C62.6276 26.6276 62.887 26.887 63.4059 27.4059L66.5941 30.5941C67.113 31.113 67.3724 31.3724 67.5579 31.6751C67.7224 31.9436 67.8436 32.2362 67.9171 32.5423C68 32.8876 68 33.2545 68 33.9882Z" stroke="#98A2B3" stroke-width="2" stroke-linecap="round" stroke-linejoin="round"/>
<g filter="url(#filter1_d_48_55891)">
<path fill-rule="evenodd" clip-rule="evenodd" d="M78.6727 44.8478C79.16 44.6624 80.1213 44.7759 80.3751 45.3404C80.5913 45.8215 80.777 46.6327 80.7872 46.4598C80.8116 46.0756 80.7628 45.2446 80.9263 44.8103C81.045 44.4937 81.2785 44.1959 81.6226 44.0907C81.9119 44.0012 82.252 43.9699 82.5525 44.0335C82.8702 44.1001 83.2042 44.3323 83.329 44.5531C83.6965 45.2019 83.7026 46.5306 83.7198 46.4598C83.7848 46.1766 83.7909 45.18 84.0071 44.8103C84.1502 44.5656 84.5116 44.3469 84.7045 44.3115C85.0029 44.2574 85.3704 44.2407 85.683 44.3032C85.9358 44.3542 86.2779 44.6614 86.3703 44.8103C86.5926 45.1685 86.7174 46.1807 86.755 46.5369C86.7712 46.6837 86.8301 46.1276 87.0524 45.7704C87.4646 45.105 88.9243 44.9759 88.9791 46.4359C89.0055 47.1169 88.9994 47.0857 88.9994 47.5439C88.9994 48.0812 88.9872 48.4061 88.9588 48.7956C88.9283 49.2111 88.841 50.1535 88.7142 50.6096C88.6269 50.9231 88.3375 51.6281 88.0513 52.0509C88.0513 52.0509 86.9611 53.3526 86.8423 53.9378C86.7235 54.5241 86.7631 54.5283 86.7388 54.9427C86.7154 55.3582 86.8616 55.9039 86.8616 55.9039C86.8616 55.9039 86.0485 56.0122 85.6089 55.9393C85.212 55.8747 84.7207 55.0646 84.5938 54.8167C84.4192 54.4751 84.0467 54.5408 83.9015 54.7928C83.6742 55.1916 83.1818 55.907 82.8357 55.9518C82.1566 56.0393 80.7496 55.983 79.6482 55.9726C79.6482 55.9726 79.836 54.9198 79.4178 54.5585C79.1082 54.2877 78.5753 53.742 78.2565 53.4546L77.412 52.4955C77.1247 52.1206 76.3948 51.5281 76.1502 50.4284C75.934 49.4537 75.9553 48.9757 76.1878 48.5852C76.4233 48.1885 76.8679 47.9719 77.0547 47.9344C77.2658 47.8906 77.7571 47.8938 77.9429 47.9989C78.1692 48.127 78.2606 48.1645 78.4382 48.4061C78.6717 48.7258 78.755 48.881 78.6545 48.5321C78.5773 48.2593 78.3276 47.9125 78.2139 47.522C78.1033 47.1461 77.8068 46.54 77.8282 45.9329C77.8363 45.7028 77.9327 45.13 78.6727 44.8478Z" fill="white"/>
<path fill-rule="evenodd" clip-rule="evenodd" d="M78.6727 44.8478C79.16 44.6624 80.1213 44.7759 80.3751 45.3404C80.5913 45.8215 80.777 46.6327 80.7872 46.4598C80.8116 46.0756 80.7628 45.2446 80.9263 44.8103C81.045 44.4937 81.2785 44.1959 81.6226 44.0907C81.9119 44.0012 82.252 43.9699 82.5525 44.0335C82.8702 44.1001 83.2042 44.3323 83.329 44.5531C83.6965 45.2019 83.7026 46.5306 83.7198 46.4598C83.7848 46.1766 83.7909 45.18 84.0071 44.8103C84.1502 44.5656 84.5116 44.3469 84.7045 44.3115C85.0029 44.2574 85.3704 44.2407 85.683 44.3032C85.9358 44.3542 86.2779 44.6614 86.3703 44.8103C86.5926 45.1685 86.7174 46.1807 86.755 46.5369C86.7712 46.6837 86.8301 46.1276 87.0524 45.7704C87.4646 45.105 88.9243 44.9759 88.9791 46.4359C89.0055 47.1169 88.9994 47.0857 88.9994 47.5439C88.9994 48.0812 88.9872 48.4061 88.9588 48.7956C88.9283 49.2111 88.841 50.1535 88.7142 50.6096C88.6269 50.9231 88.3375 51.6281 88.0513 52.0509C88.0513 52.0509 86.9611 53.3526 86.8423 53.9378C86.7235 54.5241 86.7631 54.5283 86.7388 54.9427C86.7154 55.3582 86.8616 55.9039 86.8616 55.9039C86.8616 55.9039 86.0485 56.0122 85.6089 55.9393C85.212 55.8747 84.7207 55.0646 84.5938 54.8167C84.4192 54.4751 84.0467 54.5408 83.9015 54.7928C83.6742 55.1916 83.1818 55.907 82.8357 55.9518C82.1566 56.0393 80.7496 55.983 79.6482 55.9726C79.6482 55.9726 79.836 54.9198 79.4178 54.5585C79.1082 54.2877 78.5753 53.742 78.2565 53.4546L77.412 52.4955C77.1247 52.1206 76.3948 51.5281 76.1502 50.4284C75.934 49.4537 75.9553 48.9757 76.1878 48.5852C76.4233 48.1885 76.8679 47.9719 77.0547 47.9344C77.2658 47.8906 77.7571 47.8938 77.9429 47.9989C78.1692 48.127 78.2606 48.1645 78.4382 48.4061C78.6717 48.7258 78.755 48.881 78.6545 48.5321C78.5773 48.2593 78.3276 47.9125 78.2139 47.522C78.1033 47.1461 77.8068 46.54 77.8282 45.9329C77.8363 45.7028 77.9327 45.13 78.6727 44.8478Z" stroke="#101828" stroke-width="0.75" stroke-linecap="round" stroke-linejoin="round"/>
</g>
<path fill-rule="evenodd" clip-rule="evenodd" d="M82 49.5C82 49.2239 81.7761 49 81.5 49C81.2239 49 81 49.2239 81 49.5V52.5C81 52.7761 81.2239 53 81.5 53C81.7761 53 82 52.7761 82 52.5V49.5ZM83.5 49C83.7761 49 84 49.2239 84 49.5V52.5C84 52.7761 83.7761 53 83.5 53C83.2239 53 83 52.7761 83 52.5V49.5C83 49.2239 83.2239 49 83.5 49ZM85.5 49C85.7761 49 86 49.2239 86 49.5V52.5C86 52.7761 85.7761 53 85.5 53C85.2239 53 85 52.7761 85 52.5V49.5C85 49.2239 85.2239 49 85.5 49Z" fill="#101828"/>
</g>
<defs>
<filter id="filter0_d_48_55891" x="0" y="0" width="128" height="120" filterUnits="userSpaceOnUse" color-interpolation-filters="sRGB">
<feFlood flood-opacity="0" result="BackgroundImageFix"/>
<feColorMatrix in="SourceAlpha" type="matrix" values="0 0 0 0 0 0 0 0 0 0 0 0 0 0 0 0 0 0 127 0" result="hardAlpha"/>
<feMorphology radius="12" operator="erode" in="SourceAlpha" result="effect1_dropShadow_48_55891"/>
<feOffset dy="24"/>
<feGaussianBlur stdDeviation="24"/>
<feColorMatrix type="matrix" values="0 0 0 0 0.0625882 0 0 0 0 0.0926346 0 0 0 0 0.15702 0 0 0 0.18 0"/>
<feBlend mode="normal" in2="BackgroundImageFix" result="effect1_dropShadow_48_55891"/>
<feBlend mode="normal" in="SourceGraphic" in2="effect1_dropShadow_48_55891" result="shape"/>
</filter>
<filter id="filter1_d_48_55891" x="73.625" y="42.625" width="17.75" height="16.75" filterUnits="userSpaceOnUse" color-interpolation-filters="sRGB">
<feFlood flood-opacity="0" result="BackgroundImageFix"/>
<feColorMatrix in="SourceAlpha" type="matrix" values="0 0 0 0 0 0 0 0 0 0 0 0 0 0 0 0 0 0 127 0" result="hardAlpha"/>
<feOffset dy="1"/>
<feGaussianBlur stdDeviation="1"/>
<feColorMatrix type="matrix" values="0 0 0 0 0.027451 0 0 0 0 0.12549 0 0 0 0 0.239216 0 0 0 0.24 0"/>
<feBlend mode="normal" in2="BackgroundImageFix" result="effect1_dropShadow_48_55891"/>
<feBlend mode="normal" in="SourceGraphic" in2="effect1_dropShadow_48_55891" result="shape"/>
</filter>
</defs>
</svg>
