<svg width="737" height="670" viewBox="0 0 737 670" fill="none" xmlns="http://www.w3.org/2000/svg">
<path opacity="0.8" d="M64.5863 669.613C100.256 669.613 129.173 662.128 129.173 652.894C129.173 643.661 100.256 636.175 64.5863 636.175C28.9163 636.175 0 643.661 0 652.894C0 662.128 28.9163 669.613 64.5863 669.613Z" fill="#64C2E7"/>
<path opacity="0.8" d="M721.354 632.475C721.354 641.712 692.44 649.194 656.768 649.194C621.096 649.194 592.182 641.712 592.182 632.475C592.182 623.238 621.096 615.756 656.768 615.756C692.44 615.756 721.354 623.238 721.354 632.475Z" fill="#64C2E7"/>
<path opacity="0.8" d="M421.53 601.513C392.816 601.513 368.491 604.302 360.088 608.152C352.395 605.526 334.8 603.69 314.288 603.69C286.698 603.69 264.339 607.009 264.339 611.117C264.339 615.226 286.698 618.545 314.288 618.545C334.786 618.545 352.395 616.708 360.088 614.083C368.478 617.933 392.803 620.721 421.53 620.721C457.202 620.721 486.116 616.423 486.116 611.117C486.116 605.812 457.202 601.513 421.53 601.513Z" fill="#64C2E7"/>
<path d="M642.532 134.948H141.536C122.389 134.948 106.868 150.729 106.868 170.195V450.948C106.868 470.415 122.389 486.195 141.536 486.195H642.532C661.679 486.195 677.2 470.415 677.2 450.948V170.195C677.2 150.729 661.679 134.948 642.532 134.948Z" fill="#152F50"/>
<path d="M629.459 153.681H169.835C160.295 153.681 152.561 161.544 152.561 171.243V449.9C152.561 459.6 160.295 467.463 169.835 467.463H629.459C638.999 467.463 646.733 459.6 646.733 449.9V171.243C646.733 161.544 638.999 153.681 629.459 153.681Z" fill="#64C2E7"/>
<path d="M141.737 310.572C141.737 317.088 136.545 322.38 130.123 322.38C123.713 322.38 118.509 317.101 118.509 310.572C118.509 304.056 123.7 298.764 130.123 298.764C136.532 298.764 141.737 304.042 141.737 310.572Z" fill="#64C2E7"/>
<path d="M611.556 173.283H190.548C182.185 173.283 175.401 180.18 175.401 188.683V430.556C175.401 439.058 182.185 445.955 190.548 445.955H611.57C619.932 445.955 626.716 439.058 626.716 430.556V188.683C626.716 180.18 619.932 173.283 611.556 173.283Z" fill="white"/>
<path d="M611.556 173.283H190.548C182.185 173.283 175.401 180.18 175.401 188.683V214.638H626.716V188.683C626.716 180.18 619.932 173.283 611.556 173.283Z" fill="#F8A72D"/>
<path d="M542.407 293.934C524.906 294.383 511.927 277.937 495.79 271.04C475.212 262.238 450.097 270.536 434.977 287.241C427.859 295.104 421.463 305.321 411.107 307.144C396.349 309.742 384.414 293.676 369.535 291.976C347.511 289.472 333.261 317.931 311.384 321.55C291.541 324.828 271.056 306.64 252.565 314.639C244.523 318.122 239.171 325.808 232.642 331.698C226.099 337.589 216.157 341.792 208.838 336.936V366.401H595.379V265.68C577.45 273.842 562.036 293.431 542.407 293.934Z" fill="#0096D6"/>
<path d="M237.619 402.07C237.619 409.838 231.424 416.15 223.771 416.15C216.117 416.15 209.922 409.851 209.922 402.07C209.922 394.289 216.117 387.99 223.771 387.99C231.424 388.004 237.619 394.302 237.619 402.07Z" fill="#F8A72D"/>
<path d="M383.851 394.561H249.835V409.593H383.851V394.561Z" fill="#F8A72D"/>
<path d="M595.366 381.311H461.35V388.82H595.366V381.311Z" fill="#29A87C"/>
<path d="M595.366 398.315H461.35V405.824H595.366V398.315Z" fill="#29A87C"/>
<path d="M595.366 415.32H461.35V422.829H595.366V415.32Z" fill="#29A87C"/>
<path d="M276.422 231.725H208.825V256.143H276.422V231.725Z" fill="#29A87C"/>
<path d="M607.555 193.961C607.555 198.369 604.036 201.946 599.701 201.946C595.366 201.946 591.847 198.369 591.847 193.961C591.847 189.553 595.366 185.976 599.701 185.976C604.036 185.976 607.555 189.54 607.555 193.961Z" fill="#5FC8D7"/>
<path d="M544.079 193.961C544.079 198.369 540.56 201.946 536.225 201.946C531.89 201.946 528.371 198.369 528.371 193.961C528.371 189.553 531.89 185.976 536.225 185.976C540.56 185.962 544.079 189.54 544.079 193.961Z" fill="#F7941D"/>
<path d="M576.259 193.961C576.259 198.369 572.74 201.946 568.404 201.946C564.069 201.946 560.55 198.369 560.55 193.961C560.55 189.553 564.069 185.976 568.404 185.976C572.753 185.962 576.259 189.54 576.259 193.961Z" fill="#EF4065"/>
<path d="M567.87 526.475H562.652C562.25 525.115 561.728 523.836 561.086 522.612L564.779 518.857C566.144 517.47 566.144 515.211 564.779 513.81L561.14 510.11C559.775 508.722 557.554 508.722 556.176 510.11L552.483 513.865C551.278 513.212 550.007 512.681 548.683 512.273V506.968C548.683 504.995 547.117 503.403 545.177 503.403H540.026C538.085 503.403 536.52 504.995 536.52 506.968V512.273C535.182 512.681 533.924 513.212 532.72 513.878L529.027 510.124C527.662 508.736 525.441 508.736 524.063 510.124L520.424 513.824C519.059 515.211 519.059 517.47 520.424 518.871L524.117 522.625C523.474 523.85 522.952 525.142 522.551 526.489H517.333C515.393 526.489 513.827 528.08 513.827 530.053V535.29C513.827 537.263 515.393 538.854 517.333 538.854H522.551C522.952 540.201 523.474 541.494 524.13 542.718L520.437 546.473C519.072 547.86 519.072 550.118 520.437 551.52L524.076 555.22C525.441 556.607 527.662 556.607 529.04 555.22L532.733 551.465C533.938 552.118 535.209 552.649 536.533 553.057V558.362C536.533 560.335 538.099 561.926 540.039 561.926H545.19C547.131 561.926 548.696 560.335 548.696 558.362V553.057C550.021 552.649 551.292 552.118 552.496 551.452L556.189 555.206C557.554 556.594 559.775 556.594 561.153 555.206L564.792 551.506C566.157 550.118 566.157 547.86 564.792 546.459L561.099 542.704C561.742 541.48 562.264 540.188 562.678 538.841H567.897C569.837 538.841 571.402 537.249 571.402 535.277V530.039C571.375 528.067 569.797 526.475 567.87 526.475ZM542.581 542.786C537.082 542.786 532.626 538.256 532.626 532.665C532.626 527.074 537.082 522.544 542.581 522.544C548.081 522.544 552.536 527.074 552.536 532.665C552.536 538.256 548.081 542.786 542.581 542.786Z" fill="#FF3A67"/>
<path d="M254.585 513.185H217.161C212.772 513.185 209.213 516.803 209.213 521.265V559.315C209.213 563.777 212.772 567.395 217.161 567.395H254.585C258.974 567.395 262.533 563.777 262.533 559.315V521.265C262.533 516.803 258.974 513.185 254.585 513.185Z" fill="#64C2E7"/>
<path d="M232.575 551.996L222.58 541.834C221.402 540.637 221.402 538.705 222.58 537.508C223.757 536.311 225.657 536.311 226.835 537.508L232.575 543.344L246.183 529.509C247.36 528.312 249.26 528.312 250.437 529.509C251.615 530.706 251.615 532.638 250.437 533.835L232.575 551.996Z" fill="white"/>
<path d="M664.02 46.6197L648.646 86.6281C653.115 88.1925 657.918 89.0631 662.923 89.0631C683.274 89.0631 700.374 74.9561 705.298 55.843L664.02 46.6197Z" fill="#F8A72D"/>
<path d="M663.672 42.8515L706.034 52.3061C706.476 49.7758 706.716 47.1775 706.716 44.5248C706.716 19.943 687.101 0 662.91 0C649.208 0 636.979 6.39372 628.951 16.4196L663.672 42.8515Z" fill="#FF3A67"/>
<path d="M660.768 45.1507L626.822 19.3037C621.965 26.4729 619.115 35.1656 619.115 44.5385C619.115 62.7675 629.9 78.4389 645.341 85.3223L660.768 45.1507Z" fill="#29A87C"/>
<path d="M736.26 162.809H657.183V213.374H736.26V162.809Z" fill="#5FC8D7"/>
<path d="M657.183 162.809L696.721 190.465L736.26 162.809H657.183Z" fill="#8CECF4"/>
<path d="M680.317 265.924H420.928C413.355 265.924 407.227 272.155 407.227 279.855V462.497C407.227 470.197 413.355 476.428 420.928 476.428H680.317C687.89 476.428 694.019 470.197 694.019 462.497V279.855C694.019 272.155 687.877 265.924 680.317 265.924Z" fill="white"/>
<path d="M680.732 265.489H421.343C413.77 265.489 407.642 271.72 407.642 279.419V462.062C407.642 469.762 413.77 475.992 421.343 475.992H680.732C688.305 475.992 694.433 469.762 694.433 462.062V279.419C694.433 271.733 688.305 265.489 680.732 265.489Z" fill="#FEFEFE"/>
<path d="M681.16 265.067H421.772C414.198 265.067 408.07 271.298 408.07 278.998V461.64C408.07 469.34 414.198 475.57 421.772 475.57H681.16C688.734 475.57 694.862 469.34 694.862 461.64V278.998C694.862 271.298 688.72 265.067 681.16 265.067Z" fill="#FDFDFD"/>
<path d="M681.589 264.632H422.187C414.613 264.632 408.485 270.863 408.485 278.562V461.205C408.485 468.905 414.613 475.135 422.187 475.135H681.589C689.162 475.135 695.29 468.905 695.29 461.205V278.562C695.29 270.876 689.149 264.632 681.589 264.632Z" fill="#FCFCFC"/>
<path d="M682.003 264.21H422.614C415.041 264.21 408.913 270.441 408.913 278.14V460.783C408.913 468.483 415.041 474.713 422.614 474.713H682.003C689.576 474.713 695.704 468.483 695.704 460.783V278.14C695.704 270.441 689.576 264.21 682.003 264.21Z" fill="#FBFBFB"/>
<path d="M682.431 263.775H423.042C415.469 263.775 409.341 270.006 409.341 277.705V460.348C409.341 468.048 415.469 474.278 423.042 474.278H682.431C690.004 474.278 696.132 468.048 696.132 460.348V277.705C696.132 270.019 689.991 263.775 682.431 263.775Z" fill="#FAFAFA"/>
<path d="M682.846 263.34H423.457C415.884 263.34 409.756 269.57 409.756 277.27V459.913C409.756 467.612 415.884 473.843 423.457 473.843H682.846C690.419 473.843 696.547 467.612 696.547 459.913V277.27C696.547 269.584 690.419 263.34 682.846 263.34Z" fill="#F9F9FA"/>
<path d="M683.274 262.918H423.885C416.312 262.918 410.184 269.149 410.184 276.848V459.491C410.184 467.191 416.312 473.421 423.885 473.421H683.274C690.847 473.421 696.975 467.191 696.975 459.491V276.848C696.975 269.149 690.834 262.918 683.274 262.918Z" fill="#F8F8F9"/>
<path d="M683.703 262.483H424.3C416.727 262.483 410.599 268.713 410.599 276.413V459.056C410.599 466.755 416.727 472.986 424.3 472.986H683.689C691.262 472.986 697.391 466.755 697.391 459.056V276.413C697.404 268.727 691.262 262.483 683.703 262.483Z" fill="#F7F8F8"/>
<path d="M684.117 262.061H424.728C417.155 262.061 411.027 268.291 411.027 275.991V458.634C411.027 466.334 417.155 472.564 424.728 472.564H684.117C691.691 472.564 697.819 466.334 697.819 458.634V275.991C697.819 268.291 691.691 262.061 684.117 262.061Z" fill="#F6F7F7"/>
<path d="M684.546 261.626H425.157C417.583 261.626 411.455 267.856 411.455 275.556V458.199C411.455 465.898 417.583 472.129 425.157 472.129H684.546C692.119 472.129 698.247 465.898 698.247 458.199V275.556C698.247 267.87 692.105 261.626 684.546 261.626Z" fill="#F5F6F6"/>
<path d="M684.96 261.19H425.571C417.998 261.19 411.87 267.421 411.87 275.121V457.763C411.87 465.463 417.998 471.693 425.571 471.693H684.96C692.533 471.693 698.661 465.463 698.661 457.763V275.134C698.661 267.434 692.533 261.19 684.96 261.19Z" fill="#F4F5F5"/>
<path d="M685.388 260.769H425.999C418.426 260.769 412.298 266.999 412.298 274.699V457.342C412.298 465.041 418.426 471.272 425.999 471.272H685.388C692.961 471.272 699.09 465.041 699.09 457.342V274.699C699.09 266.999 692.948 260.769 685.388 260.769Z" fill="#F3F4F4"/>
<path d="M685.803 260.333H426.414C418.841 260.333 412.713 266.564 412.713 274.263V456.906C412.713 464.606 418.841 470.836 426.414 470.836H685.803C693.376 470.836 699.504 464.606 699.504 456.906V274.263C699.517 266.577 693.376 260.333 685.803 260.333Z" fill="#F2F3F3"/>
<path d="M686.231 259.912H426.842C419.269 259.912 413.141 266.142 413.141 273.842V456.485C413.141 464.184 419.269 470.415 426.842 470.415H686.231C693.804 470.415 699.933 464.184 699.933 456.485V273.842C699.933 266.142 693.804 259.912 686.231 259.912Z" fill="#F1F2F2"/>
<path d="M686.659 259.476H427.271C419.697 259.476 413.569 265.707 413.569 273.407V456.049C413.569 463.749 419.697 469.98 427.271 469.98H686.659C694.233 469.98 700.361 463.749 700.361 456.049V273.407C700.361 265.72 694.219 259.476 686.659 259.476Z" fill="#F0F1F1"/>
<path d="M687.074 259.041H427.686C420.113 259.041 413.984 265.272 413.984 272.971V455.614C413.984 463.314 420.113 469.544 427.686 469.544H687.074C694.648 469.544 700.776 463.314 700.776 455.614V272.985C700.776 265.285 694.648 259.041 687.074 259.041Z" fill="#EFF0F0"/>
<path d="M687.503 258.619H428.114C420.541 258.619 414.413 264.85 414.413 272.55V455.192C414.413 462.892 420.541 469.122 428.114 469.122H687.503C695.076 469.122 701.204 462.892 701.204 455.192V272.55C701.204 264.85 695.063 258.619 687.503 258.619Z" fill="#EEEFEF"/>
<path d="M687.917 258.184H428.528C420.955 258.184 414.826 264.415 414.826 272.114V454.757C414.826 462.457 420.955 468.687 428.528 468.687H687.917C695.49 468.687 701.618 462.457 701.618 454.757V272.114C701.631 264.428 695.49 258.184 687.917 258.184Z" fill="#EDEEEF"/>
<path d="M688.345 257.762H428.956C421.383 257.762 415.255 263.993 415.255 271.692V454.335C415.255 462.035 421.383 468.265 428.956 468.265H688.345C695.918 468.265 702.047 462.035 702.047 454.335V271.692C702.047 263.993 695.918 257.762 688.345 257.762Z" fill="#ECEDEE"/>
<path d="M688.774 257.327H429.385C421.811 257.327 415.683 263.557 415.683 271.257V453.9C415.683 461.6 421.811 467.83 429.385 467.83H688.774C696.347 467.83 702.475 461.6 702.475 453.9V271.257C702.475 263.571 696.333 257.327 688.774 257.327Z" fill="#EBECED"/>
<path d="M689.189 256.891H429.8C422.227 256.891 416.098 263.122 416.098 270.822V453.464C416.098 461.164 422.227 467.394 429.8 467.394H689.189C696.762 467.394 702.89 461.164 702.89 453.464V270.835C702.89 263.135 696.762 256.891 689.189 256.891Z" fill="#EAEBEC"/>
<path d="M689.617 256.47H430.228C422.655 256.47 416.526 262.7 416.526 270.4V453.043C416.526 460.743 422.655 466.973 430.228 466.973H689.617C697.19 466.973 703.318 460.743 703.318 453.043V270.4C703.318 262.7 697.176 256.47 689.617 256.47Z" fill="#E9EAEB"/>
<path d="M690.031 256.035H430.642C423.069 256.035 416.941 262.265 416.941 269.965V452.607C416.941 460.307 423.069 466.538 430.642 466.538H690.031C697.604 466.538 703.733 460.307 703.733 452.607V269.965C703.746 262.279 697.604 256.035 690.031 256.035Z" fill="#E8E9EA"/>
<path d="M690.459 255.613H431.071C423.497 255.613 417.369 261.844 417.369 269.543V452.186C417.369 459.886 423.497 466.116 431.071 466.116H690.459C698.033 466.116 704.161 459.886 704.161 452.186V269.543C704.161 261.844 698.033 255.613 690.459 255.613Z" fill="#E8E9E9"/>
<path d="M690.888 255.178H431.499C423.925 255.178 417.797 261.408 417.797 269.108V451.75C417.797 459.45 423.925 465.681 431.499 465.681H690.888C698.461 465.681 704.589 459.45 704.589 451.75V269.108C704.589 261.422 698.447 255.178 690.888 255.178Z" fill="#E7E8E8"/>
<path d="M691.302 254.756H431.913C424.34 254.756 418.212 260.986 418.212 268.686V451.329C418.212 459.028 424.34 465.259 431.913 465.259H691.302C698.876 465.259 705.004 459.028 705.004 451.329V268.686C705.004 260.986 698.876 254.756 691.302 254.756Z" fill="#E6E7E7"/>
<path d="M691.731 254.32H432.342C424.769 254.32 418.64 260.551 418.64 268.251V450.893C418.64 458.593 424.769 464.823 432.342 464.823H691.731C699.304 464.823 705.432 458.593 705.432 450.893V268.251C705.432 260.551 699.29 254.32 691.731 254.32Z" fill="#E5E6E6"/>
<path d="M692.145 253.885H432.756C425.183 253.885 419.055 260.116 419.055 267.815V450.458C419.055 458.158 425.183 464.388 432.756 464.388H692.145C699.718 464.388 705.846 458.158 705.846 450.458V267.815C705.846 260.129 699.718 253.885 692.145 253.885Z" fill="#E4E5E5"/>
<path d="M692.573 253.463H433.185C425.612 253.463 419.483 259.694 419.483 267.393V450.036C419.483 457.736 425.612 463.966 433.185 463.966H692.573C700.147 463.966 706.275 457.736 706.275 450.036V267.393C706.275 259.694 700.147 253.463 692.573 253.463Z" fill="#E3E4E4"/>
<path d="M693.002 253.028H433.613C426.04 253.028 419.912 259.259 419.912 266.958V449.601C419.912 457.301 426.04 463.531 433.613 463.531H693.002C700.575 463.531 706.703 457.301 706.703 449.601V266.958C706.703 259.272 700.562 253.028 693.002 253.028Z" fill="#E2E3E4"/>
<path d="M693.416 252.606H434.027C426.454 252.606 420.326 258.837 420.326 266.536V449.179C420.326 456.879 426.454 463.109 434.027 463.109H693.416C700.989 463.109 707.118 456.879 707.118 449.179V266.536C707.118 258.837 700.989 252.606 693.416 252.606Z" fill="#E1E2E3"/>
<path d="M693.844 252.171H434.456C426.882 252.171 420.754 258.402 420.754 266.101V448.744C420.754 456.444 426.882 462.674 434.456 462.674H693.844C701.418 462.674 707.546 456.444 707.546 448.744V266.101C707.546 258.402 701.404 252.171 693.844 252.171Z" fill="#E0E1E2"/>
<path d="M694.259 251.736H434.87C427.297 251.736 421.169 257.966 421.169 265.666V448.308C421.169 456.008 427.297 462.239 434.87 462.239H694.259C701.832 462.239 707.96 456.008 707.96 448.308V265.666C707.96 257.98 701.832 251.736 694.259 251.736Z" fill="#DFE0E1"/>
<path d="M694.688 251.314H435.299C427.726 251.314 421.597 257.545 421.597 265.244V447.887C421.597 455.587 427.726 461.817 435.299 461.817H694.688C702.261 461.817 708.389 455.587 708.389 447.887V265.244C708.389 257.545 702.261 251.314 694.688 251.314Z" fill="#DEDFE0"/>
<path d="M695.116 250.879H435.714C428.14 250.879 422.012 257.109 422.012 264.809V447.452C422.012 455.151 428.14 461.382 435.714 461.382H695.102C702.675 461.382 708.804 455.151 708.804 447.452V264.809C708.817 257.123 702.676 250.879 695.116 250.879Z" fill="#DDDEDF"/>
<path d="M695.53 250.457H436.142C428.568 250.457 422.44 256.687 422.44 264.387V447.016C422.44 454.716 428.568 460.947 436.142 460.947H695.53C703.104 460.947 709.232 454.716 709.232 447.016V264.387C709.232 256.687 703.104 250.457 695.53 250.457Z" fill="#DCDDDE"/>
<path d="M695.959 250.022H436.57C428.997 250.022 422.869 256.252 422.869 263.952V446.595C422.869 454.294 428.997 460.525 436.57 460.525H695.959C703.532 460.525 709.66 454.294 709.66 446.595V263.952C709.66 256.252 703.519 250.022 695.959 250.022Z" fill="#DBDCDD"/>
<path d="M696.373 249.586H436.984C429.411 249.586 423.283 255.817 423.283 263.517V446.159C423.283 453.859 429.411 460.089 436.984 460.089H696.373C703.946 460.089 710.074 453.859 710.074 446.159V263.517C710.074 255.83 703.946 249.586 696.373 249.586Z" fill="#DADBDC"/>
<path d="M696.802 249.165H437.413C429.84 249.165 423.711 255.395 423.711 263.095V445.738C423.711 453.437 429.84 459.668 437.413 459.668H696.802C704.375 459.668 710.503 453.437 710.503 445.738V263.095C710.503 255.395 704.375 249.165 696.802 249.165Z" fill="#D9DADB"/>
<path d="M697.23 248.729H437.828C430.254 248.729 424.126 254.96 424.126 262.659V445.302C424.126 453.002 430.254 459.232 437.828 459.232H697.216C704.79 459.232 710.918 453.002 710.918 445.302V262.659C710.931 254.973 704.79 248.729 697.23 248.729Z" fill="#D8DADA"/>
<path d="M697.644 248.307H438.255C430.682 248.307 424.554 254.538 424.554 262.238V444.88C424.554 452.58 430.682 458.811 438.255 458.811H697.644C705.217 458.811 711.346 452.58 711.346 444.88V262.238C711.346 254.538 705.217 248.307 697.644 248.307Z" fill="#D7D9D9"/>
<path d="M698.073 247.872H438.684C431.111 247.872 424.983 254.103 424.983 261.802V444.445C424.983 452.145 431.111 458.375 438.684 458.375H698.073C705.646 458.375 711.774 452.145 711.774 444.445V261.802C711.774 254.103 705.633 247.872 698.073 247.872Z" fill="#D6D8D9"/>
<path d="M698.487 247.437H439.099C431.525 247.437 425.397 253.667 425.397 261.367V444.01C425.397 451.71 431.525 457.94 439.099 457.94H698.487C706.061 457.94 712.189 451.71 712.189 444.01V261.367C712.189 253.681 706.061 247.437 698.487 247.437Z" fill="#D5D7D8"/>
<path d="M698.916 247.015H439.527C431.954 247.015 425.826 253.246 425.826 260.946V443.588C425.826 451.288 431.954 457.518 439.527 457.518H698.916C706.489 457.518 712.618 451.288 712.618 443.588V260.946C712.618 253.246 706.489 247.015 698.916 247.015Z" fill="#D4D6D7"/>
<path d="M699.344 246.58H439.941C432.368 246.58 426.24 252.81 426.24 260.51V443.153C426.24 450.853 432.368 457.083 439.941 457.083H699.33C706.903 457.083 713.031 450.853 713.031 443.153V260.51C713.045 252.824 706.903 246.58 699.344 246.58Z" fill="#D3D5D6"/>
<path d="M699.758 246.158H440.369C432.796 246.158 426.668 252.389 426.668 260.088V442.731C426.668 450.431 432.796 456.661 440.369 456.661H699.758C707.331 456.661 713.459 450.431 713.459 442.731V260.088C713.459 252.389 707.331 246.158 699.758 246.158Z" fill="#D2D4D5"/>
<path d="M700.187 245.723H440.798C433.225 245.723 427.097 251.953 427.097 259.653V442.296C427.097 449.996 433.225 456.226 440.798 456.226H700.187C707.76 456.226 713.888 449.996 713.888 442.296V259.653C713.888 251.953 707.747 245.723 700.187 245.723Z" fill="#D1D3D4"/>
<path d="M440.798 246.223H700.187C707.463 246.223 713.388 252.222 713.388 259.653V442.296C713.388 449.727 707.476 455.726 700.187 455.726H440.798C433.508 455.726 427.596 449.727 427.596 442.296V259.653C427.596 252.222 433.508 246.223 440.798 246.223Z" fill="white" stroke="#F4F4F4"/>
<path d="M690.178 308.681H450.806V432.161H690.178V308.681Z" fill="#FF3A67"/>
<path d="M479.44 274.767C479.44 282.806 473.031 289.323 465.123 289.323C457.215 289.323 450.806 282.806 450.806 274.767C450.806 266.727 457.215 260.211 465.123 260.211C473.031 260.211 479.44 266.727 479.44 274.767Z" fill="#F8A72D"/>
<path d="M595.968 261.422H495.402V271.352H595.968V261.422Z" fill="#29A87C"/>
<path d="M661.772 283.786H495.402V288.098H661.772V283.786Z" fill="#F8A72D"/>
<path d="M592.877 370.414L554.891 351.423V389.405L592.877 370.414Z" fill="white"/>
<path d="M130.123 50.0613H120.609V59.0533H130.123V50.0613Z" fill="#64C2E7"/>
<path d="M135.314 42.9465H115.431V50.0749H135.314V42.9465Z" fill="#64C2E7"/>
<path d="M125.373 121.345C142.982 121.345 157.258 106.831 157.258 88.9274C157.258 71.0237 142.982 56.5098 125.373 56.5098C107.763 56.5098 93.4875 71.0237 93.4875 88.9274C93.4875 106.831 107.763 121.345 125.373 121.345Z" fill="#29A87C"/>
<path d="M125.373 116.515C140.359 116.515 152.508 104.164 152.508 88.9272C152.508 73.6907 140.359 61.339 125.373 61.339C110.386 61.339 98.2375 73.6907 98.2375 88.9272C98.2375 104.164 110.386 116.515 125.373 116.515Z" fill="white"/>
<path d="M147.878 94.9944C147.824 94.9944 147.757 94.9944 147.691 94.9671C147.249 94.8583 146.968 94.423 147.075 93.9741C147.45 92.328 147.637 90.6276 147.637 88.9135C147.637 78.2074 140.157 68.8753 129.855 66.7259C129.413 66.6307 129.119 66.1954 129.212 65.7465C129.306 65.2976 129.734 64.9983 130.176 65.0935C141.241 67.3925 149.269 77.4048 149.269 88.9135C149.269 90.75 149.069 92.5729 148.667 94.3414C148.6 94.7359 148.253 94.9944 147.878 94.9944Z" fill="#152F50"/>
<path d="M125.372 92.2193C127.161 92.2193 128.61 90.7453 128.61 88.9272C128.61 87.109 127.161 85.6351 125.372 85.6351C123.584 85.6351 122.134 87.109 122.134 88.9272C122.134 90.7453 123.584 92.2193 125.372 92.2193Z" fill="#152F50"/>
<path d="M125.373 89.7569C124.918 89.7569 124.557 89.3896 124.557 88.9271V63.6651C124.557 63.2025 124.918 62.8352 125.373 62.8352C125.828 62.8352 126.189 63.2025 126.189 63.6651V88.9135C126.189 89.376 125.828 89.7569 125.373 89.7569Z" fill="#152F50"/>
<path d="M142.687 97.7286C142.579 97.7286 142.459 97.7014 142.352 97.647L125.025 89.6753C124.61 89.4848 124.423 88.9951 124.61 88.5734C124.797 88.1517 125.279 87.9612 125.694 88.1517L143.021 96.1234C143.436 96.3139 143.623 96.8036 143.436 97.2253C143.302 97.5518 142.994 97.7286 142.687 97.7286Z" fill="#152F50"/>
<path d="M126.497 112.978C126.497 113.618 125.988 114.135 125.359 114.135C124.731 114.135 124.222 113.618 124.222 112.978C124.222 112.339 124.731 111.822 125.359 111.822C125.988 111.822 126.497 112.339 126.497 112.978Z" fill="#29A87C"/>
<path d="M108.634 107.088C109.262 107.088 109.771 106.57 109.771 105.932C109.771 105.293 109.262 104.775 108.634 104.775C108.006 104.775 107.497 105.293 107.497 105.932C107.497 106.57 108.006 107.088 108.634 107.088Z" fill="#29A87C"/>
<path d="M101.703 90.0834C102.331 90.0834 102.84 89.5657 102.84 88.9271C102.84 88.2885 102.331 87.7708 101.703 87.7708C101.075 87.7708 100.565 88.2885 100.565 88.9271C100.565 89.5657 101.075 90.0834 101.703 90.0834Z" fill="#29A87C"/>
<path d="M108.634 73.0654C109.262 73.0654 109.771 72.5477 109.771 71.9091C109.771 71.2705 109.262 70.7528 108.634 70.7528C108.006 70.7528 107.497 71.2705 107.497 71.9091C107.497 72.5477 108.006 73.0654 108.634 73.0654Z" fill="#29A87C"/>
<path d="M142.098 107.088C142.726 107.088 143.235 106.57 143.235 105.932C143.235 105.293 142.726 104.775 142.098 104.775C141.47 104.775 140.961 105.293 140.961 105.932C140.961 106.57 141.47 107.088 142.098 107.088Z" fill="#29A87C"/>
<path d="M109.771 51.4491H30.8281L97.475 59.6793C101.047 56.4961 105.222 54.129 109.758 52.7687V51.4491H109.771Z" fill="#FF3A67"/>
<path d="M49.0256 68.4399L86.7311 76.5069C87.6543 73.6501 88.8452 70.9294 90.317 68.4399H49.0256Z" fill="#FF3A67"/>
<path d="M84.8703 85.4172H62.4985L84.897 93.2257C84.7766 91.9333 84.7097 90.6138 84.7097 89.2806C84.6963 87.9883 84.7632 86.6959 84.8703 85.4172Z" fill="#FF3A67"/>
<path d="M73.6047 102.408L90.3166 110.163C88.8983 107.755 87.7343 105.156 86.8244 102.408H73.6047Z" fill="#FF3A67"/>
<path d="M108.486 185.2H46.6565V308.518H140.291V217.536L108.486 185.2Z" fill="#F8A72D"/>
<path d="M108.487 185.2L140.291 217.536H108.487V185.2Z" fill="#F7941D"/>
<path d="M93.4872 203.32H59.9832V209.51H93.4872V203.32Z" fill="white"/>
<path d="M126.643 231.412H59.9832V237.602H126.643V231.412Z" fill="white"/>
<path d="M126.643 247.886H59.9832V254.076H126.643V247.886Z" fill="white"/>
<path d="M126.643 264.374H59.9832V270.563H126.643V264.374Z" fill="white"/>
<path d="M126.643 280.848H59.9832V287.037H126.643V280.848Z" fill="white"/>
<path d="M312.348 588.29C312.348 588.29 307.946 593.038 306.942 596.792C306.032 600.411 305.537 601.853 304.012 601.458C302.487 601.064 288.317 594.684 284.276 592.113C280.235 589.542 293.87 590.004 299.489 590.63C305.109 591.242 308.762 585.379 308.762 585.379L312.348 588.29Z" fill="#F8E4D2"/>
<path d="M306.942 596.793C307.116 596.153 307.384 595.487 307.718 594.807C306.701 594.439 305.577 593.65 304.012 594.317C300.934 595.664 294.298 591.855 292.063 590.154C286.684 590.032 281.587 590.399 284.276 592.099C288.317 594.67 302.486 601.051 304.012 601.445C305.537 601.853 306.032 600.411 306.942 596.793Z" fill="#006838"/>
<path d="M425.611 530.543C425.611 530.543 425.236 553.533 385.831 551.71C361.533 551.193 349.37 546.459 349.37 546.459C349.37 546.459 326.985 578.142 310.822 590.698L305.778 587.814C305.778 587.814 333.568 534.338 341.235 529.822C347.122 526.611 399.8 525.169 399.8 525.169L425.611 530.543Z" fill="#BB4738"/>
<path opacity="0.5" d="M332.739 540.378C334.05 547.574 335.629 557.546 335.147 565.137C343.282 555.097 349.384 546.459 349.384 546.459C349.384 546.459 351.418 547.248 355.432 548.2C356.061 543.493 357.332 534.175 357.76 532.869C358.054 531.957 358.509 529.509 358.442 527.223C350.039 527.903 343.162 528.76 341.249 529.808C339.389 530.91 336.311 534.936 332.739 540.378Z" fill="#BB4738"/>
<path d="M337.395 592.412C337.395 592.412 335.643 598.697 336.459 602.492C337.288 606.124 337.502 607.648 335.964 608.002C334.425 608.369 318.971 609.348 314.207 608.968C309.444 608.587 321.767 602.601 327.039 600.52C332.311 598.425 332.886 591.514 332.886 591.514L337.395 592.412Z" fill="#F8E4D2"/>
<path d="M429.706 531.4C429.706 531.4 435.848 546.445 425.237 554.118C414.627 561.79 358.47 547.125 358.47 547.125C358.47 547.125 358.042 571.803 337.088 595.935L331.188 594.085C331.188 594.085 343.337 540.881 350.87 529.808C363.996 524.979 399.815 525.156 399.815 525.156L429.706 531.4Z" fill="#BB4738"/>
<path d="M336.473 602.493C336.339 601.84 336.272 601.119 336.259 600.37C335.202 600.52 333.837 600.343 332.74 601.676C330.612 604.315 322.999 604.043 320.242 603.581C315.412 605.989 311.064 608.709 314.208 608.954C318.971 609.335 334.425 608.356 335.964 607.988C337.516 607.635 337.302 606.125 336.473 602.493Z" fill="#006838"/>
<path opacity="0.5" d="M425.236 554.118C435.847 546.445 429.705 531.4 429.705 531.4L399.814 525.156C399.814 525.156 396.63 525.142 391.839 525.251C392.107 526.598 407.856 536.868 409.167 543.085C410.505 549.425 362.992 543.711 358.469 547.139C358.469 547.126 414.613 561.79 425.236 554.118Z" fill="#BB4738"/>
<path d="M356.569 501.431C356.569 501.431 354.335 502.084 353.037 501.607C351.726 501.145 349.371 499.472 347.203 500.002C345.036 500.533 342.547 504.804 341.57 506.137C340.593 507.471 344.648 506.137 346.681 504.736C348.715 503.335 350.16 506.736 352.448 506.396C354.736 506.056 357.76 505.362 357.76 505.362L356.569 501.431Z" fill="#FFBBA6"/>
<path d="M409.796 452.267C403.815 450.825 397.861 454.784 396.817 460.946C396.335 463.803 395.8 466.66 395.225 469.421C394.542 472.672 393.793 475.91 392.896 478.849C392.468 480.359 391.973 481.746 391.518 482.943C391.518 482.943 391.197 483.746 391.17 483.773C390.475 485.487 389.538 485.95 387.932 486.82C386.514 487.582 385.056 488.344 383.544 489.065C380.533 490.52 377.416 491.922 374.271 493.255C367.983 495.948 361.52 498.492 355.084 500.886L356.462 506.695C363.406 505.729 370.284 504.641 377.215 503.349C380.68 502.709 384.146 502.002 387.651 501.172C389.404 500.764 391.17 500.301 392.977 499.798C393.887 499.512 394.77 499.281 395.72 498.955L397.138 498.451L397.847 498.193C398.182 498.03 398.717 497.717 399.145 497.445C399.975 496.914 401.045 496.152 401.553 495.635L403.012 494.085L403.721 493.282L404.229 492.588L405.246 491.187C406.504 489.351 407.575 487.596 408.498 485.882C410.425 482.426 412.017 479.053 413.529 475.665C414.827 472.754 416.044 469.87 417.208 466.973C419.697 460.796 416.191 453.804 409.796 452.267Z" fill="#F8A72D"/>
<path opacity="0.5" d="M403.012 493.676L403.721 492.765L404.23 491.976L405.247 490.371C406.504 488.262 407.575 486.249 408.498 484.29C410.425 480.318 412.017 476.441 413.529 472.55C414.827 469.203 416.044 465.898 417.209 462.579C417.449 461.912 417.623 461.218 417.744 460.538C416.901 456.62 413.971 453.274 409.783 452.267C403.802 450.825 397.847 454.784 396.804 460.946C396.322 463.803 395.787 466.66 395.212 469.421C394.529 472.672 393.78 475.91 392.883 478.848C392.455 480.358 391.96 481.746 391.505 482.943C391.505 482.943 391.184 483.746 391.157 483.787C390.462 485.501 389.525 485.963 387.919 486.834C387.906 486.834 387.906 486.847 387.893 486.847C388.869 490.969 390.007 496.574 390.1 500.546C391.05 500.301 392 500.084 392.964 499.798C393.874 499.512 394.757 499.281 395.707 498.955L397.125 498.451L397.834 498.193C398.169 498.03 398.704 497.717 399.132 497.445C399.426 497.254 399.747 497.037 400.082 496.805C400.657 496.329 401.219 495.839 401.54 495.459L403.012 493.676Z" fill="#F8A72D"/>
<path d="M369.735 515.687C369.735 515.687 367.501 516.34 366.203 515.864C364.892 515.402 362.537 513.728 360.369 514.259C358.202 514.79 355.713 519.061 354.736 520.394C353.746 521.727 357.814 520.394 359.847 518.993C361.881 517.592 363.326 520.993 365.614 520.653C367.902 520.313 370.926 519.619 370.926 519.619L369.735 515.687Z" fill="#FFBBA6"/>
<path d="M453.83 581.148V557.777H457.657V554.227H376.332C369.722 554.227 364.357 559.682 364.357 566.402V572.551C364.357 579.271 369.722 584.726 376.332 584.726H457.657V581.175H453.83V581.148Z" fill="#29A87C"/>
<path d="M427.886 499.05C428.581 489.038 429.679 478.808 428.461 468.809C427.524 461.123 423.189 452.934 415.255 451.016C410.973 449.982 407.588 451.07 404.363 452.988C402.704 453.981 401.085 455.192 399.413 456.457C393.432 460.974 385.484 470.279 387.397 479.162C388.414 483.896 390.006 486.412 392.789 489.977C395.88 493.935 397.111 498.52 397.272 503.526C397.325 505.009 394.716 520.898 392.629 523.782C392.361 524.149 392.468 524.666 392.83 524.924C399.921 530.162 416.298 541.943 433.024 535.345C433.679 529.509 426.789 514.953 427.886 499.05Z" fill="#F8A72D"/>
<path d="M377.978 557.777C372.773 557.777 368.558 562.062 368.558 567.354V571.571C368.558 576.863 372.773 581.148 377.978 581.148H455.837V557.777H377.978Z" fill="#FFFDEB"/>
<path d="M382.741 607.893V588.263H378.915V584.713H460.24C466.849 584.713 472.215 590.168 472.215 596.888V599.282C472.215 606.002 466.849 611.457 460.24 611.457H378.915V607.907H382.741V607.893Z" fill="#152F50"/>
<path d="M458.593 588.263C463.798 588.263 468.013 592.548 468.013 597.84V598.316C468.013 603.608 463.798 607.893 458.593 607.893H380.734V588.263H458.593Z" fill="#FEE0CF"/>
<path d="M399.587 417.605C393.753 417.796 387.544 420.38 387.397 425.808C387.183 432.991 389.498 435.018 389.498 437.385C389.498 439.752 388.387 442.051 388.494 442.731C388.602 443.425 391.947 442.418 392.388 443.112C392.83 443.806 396.375 448.635 399.48 448.363C403.52 448.009 407.481 443.86 409.461 440.813C413.234 435.018 414.465 423.115 407.347 419.115C405.42 418.027 402.557 417.51 399.587 417.605Z" fill="#FFBBA6"/>
<path d="M412.9 451.954C407.24 445.438 407.749 437.548 407.749 437.548C407.749 437.548 401.192 437.766 402.597 441.425C404.002 445.084 402.825 453.723 402.825 453.723C402.825 453.723 394.342 460.769 399.239 462.13C403.534 463.313 410.211 457.94 412.994 454.376C413.556 453.641 413.502 452.634 412.9 451.954Z" fill="#FFBBA6"/>
<path d="M384.641 429.413C384.641 429.413 384.963 431.413 395.346 430.95C398.824 430.311 398.436 435.575 399.48 439.248C400.27 442.024 401.541 437.684 404.043 434.12C406.545 430.556 408.94 437.358 405.796 439.384C402.651 441.411 408.244 450.009 398.824 453.804C402.892 455.682 412.017 452.975 418.667 447.792C425.317 442.609 416.634 421.319 411.763 416.367C406.879 411.415 382.741 409.28 384.641 429.413Z" fill="#0B5F99"/>
<path d="M383.584 524.217H336.071V529.005H383.584V524.217Z" fill="#647FA0"/>
<path d="M309.926 497.377H340.098L357.038 529.019H326.879L309.926 497.377Z" fill="#7991B4"/>
<path d="M334.573 513.361C335.389 515.497 334.907 517.238 333.475 517.238C332.044 517.238 330.224 515.511 329.408 513.361C328.592 511.225 329.073 509.484 330.505 509.484C331.937 509.484 333.756 511.225 334.573 513.361Z" fill="#A2C4ED"/>
<path opacity="0.5" d="M326.879 529.019H357.038L352.89 521.279C337.623 523.714 325.233 517.388 317.74 511.974L326.879 529.019Z" fill="#7991B4"/>
<path d="M398.516 569.163H405.367L402.156 572.102L398.516 569.163Z" fill="#F8A72D"/>
<path d="M425.571 592.983H432.422L429.21 595.935L425.571 592.983Z" fill="#FFC9AE"/>
<path d="M432.944 572.102H443.701L438.657 576.727L432.944 572.102Z" fill="#F8A72D"/>
<path d="M392.094 595.758H402.851L397.807 600.384L392.094 595.758Z" fill="#FFC9AE"/>
<path d="M377.844 561.858H386.742L382.567 565.681L377.844 561.858Z" fill="#FFE7C4"/>
<path d="M447.97 601.636H456.868L452.693 605.458L447.97 601.636Z" fill="#FFC9AE"/>
<path opacity="0.5" d="M404.243 467.027C404.243 467.027 405.3 483.338 406.732 491.282C407.856 497.499 402.691 502.097 397.138 504.845C396.884 506.886 396.242 510.79 395.439 514.572C404.296 512.776 421.048 509.199 421.075 507.893C421.115 506.124 423.791 488.562 422.56 484.807C421.329 481.039 406.063 466.823 404.243 467.027Z" fill="#F8A72D"/>
<path opacity="0.5" d="M427.886 499.05C427.913 498.696 427.939 498.343 427.966 497.975C425.611 497.526 423.23 497.186 422.895 497.499C422.199 498.139 405.447 517.401 400.082 519.959C400.082 519.959 420.299 516 422.895 517.565C425.29 519.007 429.652 529.359 428.434 536.664C429.96 536.351 431.499 535.943 433.037 535.345C433.679 529.509 426.789 514.953 427.886 499.05Z" fill="#F8A72D"/>
<path d="M426.949 481.529C426.347 476.604 425.624 471.802 424.795 467.014C423.711 460.783 417.476 456.933 411.522 458.743C405.822 460.47 402.731 466.687 404.658 472.414C406.089 476.686 407.441 480.985 408.632 485.229C409.742 489.12 410.692 493.024 411.334 496.67C411.522 497.622 411.629 498.465 411.722 499.295C411.87 500.207 411.87 500.873 411.923 501.553L411.963 502.07C411.95 502.138 411.95 502.206 411.95 502.288L411.977 502.506C411.294 503.023 410.291 503.621 409.234 504.138C407.655 504.9 405.875 505.607 404.056 506.247C400.389 507.539 396.482 508.614 392.522 509.58C384.601 511.498 376.399 513.021 368.277 514.218L368.678 521.319C377.215 521.415 385.631 521.197 394.221 520.517C398.516 520.163 402.825 519.687 407.24 518.884C409.461 518.463 411.696 517.987 414.037 517.293C416.392 516.531 418.814 515.742 421.704 513.783C423.176 512.572 424.889 511.416 426.253 508.287C426.641 507.457 426.601 507.294 426.775 506.777L427.136 505.458L427.458 504.111L427.605 503.05C427.792 501.621 427.953 500.166 427.966 498.955C428.02 497.676 428.06 496.398 428.006 495.228C427.899 490.439 427.484 485.964 426.949 481.529Z" fill="#F8A72D"/>
<path opacity="0.5" d="M409.166 428.338C408.163 424.285 405.233 424.285 399.011 427.74C394.314 430.352 387.678 427.998 384.56 426.584C384.534 427.481 384.547 428.406 384.641 429.4C384.641 429.4 384.962 431.399 395.345 430.937C398.824 430.297 398.436 435.562 399.479 439.235C400.269 442.01 401.54 437.671 404.042 434.106C406.544 430.542 408.939 437.344 405.795 439.371C402.65 441.398 408.243 449.996 398.824 453.791C402.891 455.668 412.016 452.961 418.666 447.778C421.623 445.479 421.543 440.01 420.125 434.202C415.428 439.153 410.13 432.27 409.166 428.338Z" fill="#0B5F99"/>
<path opacity="0.5" d="M368.558 567.354V571.571C368.558 574.809 370.15 577.652 372.559 579.38C369.227 569.422 373.121 565.123 377.844 565.123C382.139 565.123 444.384 565.123 455.837 565.123V557.764H377.978C372.773 557.777 368.558 562.062 368.558 567.354Z" fill="#F8A72D"/>
<path opacity="0.5" d="M458.593 588.263H380.734V592.984C392.027 592.984 452.478 592.984 456.867 592.984C460.894 592.984 466.313 597.5 466.728 603.05C467.518 601.649 468.013 600.044 468.013 598.303V597.827C468.013 592.548 463.785 588.263 458.593 588.263Z" fill="#FEE0CF"/>
<path d="M467.371 107.129V106.231C467.371 102.544 462.902 100.817 460.48 103.565L444.759 121.454C444.25 121.916 443.648 122.324 442.979 122.61C442.778 122.732 442.123 122.896 441.588 123.059L439.928 123.535L422.668 129.099C421.116 129.602 419.457 129.738 417.851 129.425C416.955 129.262 416.031 129.017 415.282 128.691C413.088 127.738 412.151 126.786 410.586 127.208C409.02 127.63 402.879 130.486 402.357 133.248C401.835 136.009 408.405 131.683 409.97 131.833C411.536 131.983 412.258 134.459 414.346 134.173C416.433 133.887 434.576 131.833 434.576 131.833L441.44 131.071L443.153 130.881C443.728 130.813 444.223 130.786 445.12 130.609C446.672 130.296 448.184 129.711 449.589 128.908C450.285 128.5 450.967 128.038 451.596 127.521L452.987 126.419L455.717 124.269L461.176 119.971C464.588 117.291 467.371 111.509 467.371 107.129Z" fill="#A56551"/>
<path opacity="0.5" d="M463.303 104.299C462.674 103.823 461.978 103.347 461.296 102.885C461.015 103.075 460.734 103.279 460.493 103.551L450.204 115.25C450.431 118.665 450.819 123.698 450.123 124.909C449.133 126.623 443.527 129.099 439.486 131.289L441.44 131.071L443.152 130.881C443.728 130.813 444.223 130.786 445.119 130.609C446.671 130.296 448.183 129.711 449.588 128.908C450.284 128.5 450.966 128.038 451.595 127.521L452.987 126.419L455.716 124.27L461.175 119.971C463.102 118.461 464.801 115.944 465.939 113.278C465.47 109.51 464.668 105.32 463.303 104.299Z" fill="#874F3D"/>
<path d="M437.159 76.2214C437.159 76.2214 449.576 67.6511 460.119 75.2555C469.432 81.9758 475.573 72.0723 482.13 73.9768C488.686 75.8813 487.334 85.9616 494.065 89.7298C498.266 92.0833 502.708 93.6205 507.565 93.226C512.275 92.8451 516.731 91.5527 519.996 96.0011C522.752 99.7693 523.903 104.993 523.889 109.632C523.876 115.903 519.648 119.876 514.135 121.916C507.231 124.474 499.671 125.222 494.065 119.576C488.017 113.482 489.422 110.258 481.059 108.013C472.697 105.769 459.33 117.427 449.589 106.136C443.488 100.667 447.448 87.4716 444.464 83.9891C441.48 80.5066 434.924 80.7106 437.159 76.2214Z" fill="#BE1E2D"/>
<path opacity="0.5" d="M519.982 95.9876C516.731 91.5392 512.275 92.8316 507.552 93.2125C506.268 93.3213 504.996 93.2805 503.766 93.1309C504.127 96.0829 503.618 99.1165 500.875 101.157C494.72 105.741 484.94 92.8588 481.487 89.1178C478.049 85.3768 471.947 85.2135 465.311 92.6275C460.4 98.0962 451.757 101.796 447.555 103.361C448.064 104.395 448.706 105.333 449.576 106.109C459.316 117.4 472.683 105.741 481.046 107.986C489.409 110.231 488.004 113.455 494.051 119.549C499.644 125.195 507.204 124.433 514.122 121.889C519.621 119.862 523.863 115.876 523.876 109.605C523.889 104.966 522.739 99.7559 519.982 95.9876Z" fill="#BE1E2D"/>
<path d="M600.263 131.779C600.263 131.779 604.492 130.65 605.95 128.949C607.395 127.249 608.84 125.888 609.844 127.249C610.847 128.609 616.868 137.098 618.527 138.009C620.2 138.921 622.314 141.696 621.31 142.798C620.307 143.9 614.955 141.519 611.73 138.689C608.506 135.86 601.04 135.969 601.04 135.969L600.263 131.779Z" fill="#C58C85"/>
<path d="M578.32 91.7162C578.32 91.7162 580.461 87.8391 580.273 85.5945C580.086 83.3499 580.126 81.3502 581.785 81.5678C583.444 81.7855 593.64 83.2955 595.433 82.7105C597.239 82.1256 600.678 82.5065 600.758 84.0165C600.839 85.5129 595.433 87.7711 591.178 88.152C586.923 88.5465 581.812 94.0696 581.812 94.0696L578.32 91.7162Z" fill="#C58C85"/>
<path d="M502.24 127.276C502.24 127.276 513.921 113.863 558.557 124.705C559.119 112.802 578.199 90.1922 578.199 90.1922L584.354 92.2736C584.354 92.2736 566.652 132.758 562.798 139.301C556.898 140.39 526.297 144.811 503.283 141.478C499.711 136.826 502.24 127.276 502.24 127.276Z" fill="#00998A"/>
<path d="M601.548 130.554L593.439 130.881C593.439 130.881 580.474 129.072 574.841 129.507C569.221 129.942 560.23 132.2 560.23 132.2C560.23 132.2 536.239 120.392 524.438 118.216C512.636 116.039 503.805 121.181 503.805 121.181C501.491 127.453 500.714 136.295 503.283 141.478C511.753 144.757 550.997 142.566 559.467 142.566C567.937 142.566 602.819 137.655 602.819 137.655L601.548 130.554Z" fill="#29A87C"/>
<path opacity="0.5" d="M585.665 139.941C585.612 139.941 551.492 140.648 542.875 139.941C534.259 139.234 510.535 137.152 510.254 132.201C510.04 128.514 508.02 122.556 507.003 119.767C504.983 120.515 503.832 121.182 503.832 121.182C501.517 127.453 500.741 136.295 503.31 141.478C511.78 144.757 551.024 142.567 559.494 142.567C563.909 142.567 575.55 141.22 585.665 139.941Z" fill="#29A87C"/>
<path d="M462.701 94.913C462.701 94.913 456.252 98.6948 455.757 103.742C455.262 108.789 449.549 124.691 455.757 126.705C461.965 128.718 465.685 123.93 470.649 129.221C475.613 134.527 485.541 139.574 504.648 142.594C506.628 136.037 507.364 130.487 504.648 119.631C500.674 117.862 495.469 118.366 486.036 109.537C476.59 100.722 469.646 90.3694 462.701 94.913Z" fill="#FF3A67"/>
<path d="M440.222 78.6022C436.275 80.874 432.984 85.0096 434.951 89.009C437.546 94.3009 439.915 94.9266 440.824 96.6543C441.734 98.382 441.841 100.45 442.176 100.899C442.51 101.361 444.437 99.4022 444.999 99.7559C445.561 100.096 449.856 102.313 451.89 100.98C454.539 99.239 455.676 94.7906 455.877 91.8522C456.265 86.2611 452.559 77.1738 446.123 76.8746C444.41 76.7793 442.229 77.4595 440.222 78.6022Z" fill="#A56551"/>
<path d="M462.487 97.1304C456.493 95.498 452.987 90.383 452.987 90.383C452.987 90.383 449.16 93.1173 451.408 94.7361C453.656 96.355 456.278 101.973 456.278 101.973C456.278 101.973 453.629 112.557 457.068 111.414C460.105 110.408 463.169 101.647 463.424 98.4363C463.477 97.8242 463.076 97.28 462.487 97.1304Z" fill="#A56551"/>
<path d="M432.128 90.7365C432.128 90.7365 436.182 93.8109 442.002 89.1312C443.407 87.5124 446.23 90.8045 447.287 94.083C448.344 97.3614 448.17 91.1446 448.344 88.6959C448.518 86.2472 454.165 90.7501 451.422 94.7767C452.733 96.0147 454.687 97.0758 457.51 94.083C460.333 91.0902 458.339 84.8053 455.904 80.3297C453.456 75.8404 448.866 70.8207 441.293 74.0584C433.72 77.2824 427.538 83.3769 432.128 90.7365Z" fill="#BE1E2D"/>
<path d="M431.03 138.077H393.499V141.764H431.03V138.077Z" fill="#5FC8D7"/>
<path d="M380.44 104.055H384.735L397.66 141.764H393.365L380.44 104.055Z" fill="#5FC8D7"/>
<path opacity="0.5" d="M504.635 142.607C505.103 141.07 505.491 139.574 505.799 138.064C498.922 137.356 480.671 131.629 479.641 122.909C479.146 107.823 472.014 102.218 472.014 102.218L469.258 123.997C469.258 123.997 470.716 127.29 472.375 130.881C477.794 135.561 487.522 139.9 504.635 142.607Z" fill="#FF3A67"/>
<path d="M473.392 104.395C472.991 103.633 472.536 102.898 472.014 102.218C470.02 99.5925 465.578 99.5517 464.106 102.313C462.166 105.945 462.474 111.115 462.648 115.087C462.889 120.488 464.628 125.848 464.561 131.207C463.023 131.411 457.082 132.459 455.623 132.581C452.559 132.84 449.509 133.166 446.458 133.534C443.193 133.928 439.754 134.812 436.463 134.908C436.463 134.908 432.837 135.016 430.803 134.119C428.769 133.234 427.886 132.336 426.441 132.731C424.983 133.125 419.256 135.792 418.774 138.349C418.293 140.92 424.407 136.894 425.852 137.03C427.311 137.166 427.993 139.478 429.933 139.206C431.873 138.934 435.406 138.091 436.57 138.091C448.023 140.227 462.327 140.009 468.937 139.737C471.144 139.655 473.004 138.077 473.473 135.887C475.413 127.072 478.049 113.21 473.392 104.395Z" fill="#A56551"/>
<path opacity="0.5" d="M469.993 135.533C466.408 138.744 451.101 139.682 450.873 139.696C458.152 140.077 464.962 139.941 468.95 139.778C471.157 139.696 473.017 138.118 473.486 135.928C475.399 127.072 478.035 113.21 473.392 104.395C472.991 103.633 472.536 102.898 472.014 102.218C472.014 102.218 477.379 126.256 469.993 135.533Z" fill="#874F3D"/>
<path d="M245.286 71.5961C239.826 61.543 216.411 62.4681 216.411 62.4681C216.411 62.4681 193.009 61.5566 187.537 71.5961C183.616 78.7925 191.229 103.633 193.196 119.018C198.201 120.012 210.698 121.508 216.411 121.508C222.124 121.508 234.622 120.012 239.626 119.018C241.593 103.619 249.206 78.7925 245.286 71.5961Z" fill="#FF3A67"/>
<path opacity="0.5" d="M194.08 82.615C191.845 83.4856 189.865 87.4987 188.219 92.4776C189.878 101.442 192.233 111.387 193.197 119.018C198.201 120.011 210.698 121.508 216.411 121.508C222.125 121.508 234.622 120.011 239.626 119.018C240.188 114.556 241.232 109.305 242.329 103.932C239.974 102.123 234.381 99.8644 221.255 97.2117C197.465 92.4096 194.08 82.615 194.08 82.615Z" fill="#FF3A67"/>
<path d="M242.73 68.5489C242.73 68.5489 252.003 76.6431 256.084 97.96C259.63 116.407 245.246 118.134 239.626 120.093C235.759 120.814 238.89 110.87 238.89 110.87L246.383 105.782C246.383 105.782 240.429 88.8728 238.663 82.6151C236.91 76.371 242.73 68.5489 242.73 68.5489Z" fill="#FF3A67"/>
<path opacity="0.5" d="M248.35 105.007C246.597 104.762 244.002 98.9122 244.002 98.8986C245.34 102.803 246.397 105.782 246.397 105.782L238.904 110.87C238.904 110.87 238.315 112.734 237.967 114.788C246.129 112.788 248.524 107.7 249.314 107.442C250.103 107.17 250.103 105.265 248.35 105.007Z" fill="#FF3A67"/>
<path d="M190.079 68.5489C190.079 68.5489 180.807 76.6431 176.726 97.96C173.18 116.407 187.564 118.134 193.184 120.093C197.051 120.814 193.92 110.87 193.92 110.87L186.427 105.782C186.427 105.782 192.381 88.8728 194.147 82.6151C195.886 76.371 190.079 68.5489 190.079 68.5489Z" fill="#FF3A67"/>
<path opacity="0.5" d="M184.46 105.007C186.212 104.762 188.808 98.9122 188.808 98.8986C187.47 102.803 186.413 105.782 186.413 105.782L193.906 110.87C193.906 110.87 194.495 112.734 194.843 114.788C186.681 112.788 184.286 107.7 183.496 107.442C182.693 107.17 182.693 105.265 184.46 105.007Z" fill="#FF3A67"/>
<path d="M253.876 185.758C253.876 185.758 254.438 191.226 260.392 193.444C266.36 195.661 269.517 194.954 270.053 197.389C270.588 199.81 270.053 199.974 270.053 199.974C270.053 199.974 254.425 200.681 250.357 199.974C246.289 199.266 248.818 186.479 248.818 186.479L253.876 185.758Z" fill="#333333"/>
<path d="M179.562 185.758C179.562 185.758 179 191.226 173.046 193.444C167.079 195.661 163.921 194.954 163.386 197.389C162.851 199.824 163.386 199.974 163.386 199.974C163.386 199.974 179.014 200.681 183.081 199.974C187.149 199.266 184.62 186.479 184.62 186.479L179.562 185.758Z" fill="#333333"/>
<path d="M257.261 135.628C256.98 129.684 253.247 124.487 247.775 122.392C242.128 120.229 236.723 119.018 236.723 119.018L216.425 116.855L196.127 119.018C196.127 119.018 190.722 120.229 185.075 122.392C179.603 124.501 175.87 129.684 175.589 135.628C174.893 150.28 176.445 177.079 176.953 187.758C180.058 190.084 185.771 189.309 185.771 189.309C185.771 189.309 190.936 169.257 191.163 151.191C192.715 139.832 199.512 135.452 216.425 135.452C233.338 135.452 240.135 139.846 241.687 151.191C241.914 169.257 247.079 189.309 247.079 189.309C247.079 189.309 252.792 190.084 255.897 187.758C256.405 177.092 257.957 150.28 257.261 135.628Z" fill="#747474"/>
<path d="M221.456 62.0462C219.784 60.9715 219.369 55.7613 219.369 55.7613C219.369 55.7613 215.114 54.8635 213.99 55.7613C214.231 59.1894 212.023 62.0462 212.023 62.0462C208.33 66.3041 214.044 68.5351 216.747 68.5351C219.449 68.5351 222.5 67.0932 223.129 65.175C223.758 63.2569 221.456 62.0462 221.456 62.0462Z" fill="#FFBBA6"/>
<path opacity="0.5" d="M213.989 55.7749C214.07 56.9312 213.869 57.9923 213.575 58.9309C215.595 59.9784 218.405 61.2028 220.88 61.4476C219.689 59.72 219.382 55.7749 219.382 55.7749C219.382 55.7749 215.113 54.8771 213.989 55.7749Z" fill="#FFBBA6"/>
<path d="M227.37 33.9681C223.128 26.3093 209.976 26.2685 205.707 33.9681C203.847 37.3282 204.49 42.1439 205.48 45.6809C206.845 50.5646 209.762 55.1354 214.164 57.5161C215.261 58.1146 217.308 58.2235 218.566 57.7882C223.128 56.2101 225.657 51.4761 227.209 46.9324C228.48 43.1642 229.337 38.0492 227.53 34.3082C227.49 34.1722 227.423 34.077 227.37 33.9681Z" fill="#FFBBA6"/>
<path d="M226.889 45.2594C226.889 45.2594 229.31 42.321 230.809 44.0895C232.308 45.858 229.083 50.7145 227.384 50.8233C225.698 50.9321 225.39 48.2386 226.889 45.2594Z" fill="#FFBBA6"/>
<path d="M206.19 45.2594C206.19 45.2594 203.768 42.321 202.269 44.0895C200.771 45.858 203.995 50.7145 205.694 50.8233C207.394 50.9321 207.702 48.2386 206.19 45.2594Z" fill="#FFBBA6"/>
<path d="M208.142 37.41C208.142 37.41 223.302 44.7015 230.18 41.4639C234.542 39.1784 236.402 29.9008 234.675 28.2139C232.949 26.527 231.625 26.9352 229.511 27.2072C227.397 27.4793 225.671 24.9218 224.48 23.439C223.289 21.9562 223.557 23.0309 221.175 24.2416C218.566 25.5612 215.542 24.4049 212.799 24.8538C207.607 25.6972 204.53 29.7783 203.232 34.6484C202.603 37.0427 202.443 39.5594 202.924 41.9944C203.098 42.865 206.711 50.4559 207.126 49.9389C209.24 47.2454 209.266 43.7221 208.142 37.41Z" fill="#594A42"/>
<path d="M225.068 39.4234C225.068 39.4234 223.316 47.8168 225.938 49.9662C227.905 46.5381 229.203 43.2052 229.203 40.158C229.203 37.1107 225.068 39.4234 225.068 39.4234Z" fill="#594A42"/>
<path opacity="0.5" d="M219.329 48.8643C218.86 47.8712 217.736 45.9123 217.067 44.7832C216.867 44.4431 216.358 44.4975 216.251 44.892C215.756 46.5653 214.9 49.8166 215.636 49.9798C216.612 50.1839 220.011 50.3063 219.329 48.8643Z" fill="#FC957A"/>
<path opacity="0.5" d="M230.18 41.464C233.203 39.8724 235.023 34.9342 235.277 31.4789C233.966 34.4037 230.996 39.0153 225.911 38.5664C218.726 37.927 214.886 34.8662 211.541 33.8868C208.209 32.9073 205.814 34.8934 205.493 38.5936C205.306 40.7022 203.941 40.8246 202.71 40.4437C202.75 40.9607 202.817 41.4776 202.911 41.9809C203.085 42.8516 206.697 50.4424 207.112 49.9255C209.213 47.232 209.239 43.7086 208.116 37.3965C208.142 37.4101 223.302 44.6881 230.18 41.464Z" fill="#594A42"/>
<path opacity="0.5" d="M247.44 183.16C245.527 180.561 245.527 158.292 244.925 151.613C244.323 144.933 243.52 144.008 246.383 141.968C249.26 139.927 243.506 140.295 241.138 139.927C238.77 139.56 235.117 135.288 231.826 133.806C228.534 132.323 222.888 132.323 224.199 130.84C225.51 129.357 229.27 128.799 227.263 128.242C225.256 127.684 222.888 126.201 225.069 125.276C227.263 124.351 241.125 121.521 241.125 121.521C241.486 121.222 243.132 121.263 243.413 120.896C239.626 119.685 236.709 119.032 236.709 119.032L216.412 116.869L196.114 119.032C196.114 119.032 193.183 119.685 189.397 120.896C189.691 121.249 191.31 121.222 191.685 121.521C191.685 121.521 205.56 124.351 207.741 125.276C209.935 126.201 207.554 127.684 205.547 128.242C203.54 128.799 207.3 129.357 208.611 130.84C209.922 132.323 204.262 132.323 200.984 133.806C197.693 135.288 194.053 139.56 191.672 139.927C189.303 140.295 183.55 139.927 186.426 141.968C189.303 144.008 188.487 144.933 187.885 151.613C187.283 158.292 187.283 180.561 185.369 183.16C184.098 184.887 180.218 184.969 176.793 185.159C176.833 186.098 176.886 186.982 176.927 187.744C180.031 190.07 185.744 189.295 185.744 189.295C185.744 189.295 190.909 169.243 191.136 151.177C192.688 139.818 199.486 135.438 216.398 135.438C233.311 135.438 240.108 139.832 241.66 151.177C241.887 169.243 247.052 189.295 247.052 189.295C247.052 189.295 252.766 190.07 255.87 187.744C255.91 186.969 255.95 186.084 256.004 185.159C252.592 184.969 248.711 184.887 247.44 183.16Z" fill="#877F7D"/>
<path d="M240.202 121.508H192.622L187.898 93.362H244.925L240.202 121.508Z" fill="#DDC2BF"/>
<path d="M221.122 109.047C220.56 110.53 218.499 111.496 216.412 111.496C214.324 111.496 212.264 110.53 211.702 109.047C210.966 107.102 212.973 105.007 216.412 105.007C219.851 105.007 221.858 107.102 221.122 109.047Z" fill="#FCE2E0"/>
<path opacity="0.5" d="M192.621 121.508H240.201L240.683 118.61C215.943 118.896 197.358 105.319 188.581 97.4292L192.621 121.508Z" fill="#DDC2BF"/>
<path d="M278.095 348.472H88.3499C80.3084 348.472 73.7788 355.097 73.7788 363.286V485.61C73.7788 493.786 80.295 500.424 88.3499 500.424H278.095C286.136 500.424 292.666 493.8 292.666 485.61V363.286C292.652 355.097 286.136 348.472 278.095 348.472Z" fill="white"/>
<path d="M278.095 348.472H88.3499C80.3084 348.472 73.7788 355.097 73.7788 363.286V383.95H292.652V363.286C292.652 355.097 286.136 348.472 278.095 348.472Z" fill="#29A87C"/>
<path d="M114.976 371.34C117.762 371.34 120.021 369.043 120.021 366.211C120.021 363.379 117.762 361.082 114.976 361.082C112.19 361.082 109.932 363.379 109.932 366.211C109.932 369.043 112.19 371.34 114.976 371.34Z" fill="#EF4065"/>
<path d="M98.2779 366.211C98.2779 369.041 96.0166 371.34 93.2335 371.34C90.4505 371.34 88.1892 369.041 88.1892 366.211C88.1892 363.381 90.4505 361.082 93.2335 361.082C96.0166 361.069 98.2779 363.368 98.2779 366.211Z" fill="#F7941D"/>
<path d="M131.675 366.211C131.675 369.041 133.936 371.34 136.719 371.34C139.502 371.34 141.763 369.041 141.763 366.211C141.763 363.381 139.502 361.082 136.719 361.082C133.936 361.069 131.675 363.368 131.675 366.211Z" fill="#5FC8D7"/>
<path d="M102.974 405.417H90.0222V466.334H102.974V405.417Z" fill="#0096D6"/>
<path d="M123.807 419.51H110.855V466.32H123.807V419.51Z" fill="#F8A72D"/>
<path d="M144.627 412.205H131.675V466.334H144.627V412.205Z" fill="#5FC8D7"/>
<path d="M165.461 430.978H152.509V467.096H165.461V430.978Z" fill="#29A87C"/>
<path d="M217.937 413.089C217.937 422.122 210.725 429.454 201.841 429.454C192.956 429.454 185.744 422.122 185.744 413.089C185.744 404.056 192.956 396.724 201.841 396.724C210.725 396.724 217.937 404.056 217.937 413.089Z" fill="#5FC8D7"/>
<path d="M274.508 410.286H231.919V415.918H274.508V410.286Z" fill="#F8A72D"/>
<path d="M274.509 435.263H189.331V440.895H274.509V435.263Z" fill="#877F7D"/>
<path d="M274.509 447.982H189.331V453.614H274.509V447.982Z" fill="#877F7D"/>
<path d="M274.509 460.702H189.331V466.334H274.509V460.702Z" fill="#877F7D"/>
<path d="M133.883 480.196H104.138V485.828H133.883V480.196Z" fill="#F8A72D"/>
<path d="M101.047 477.407H90.0222V488.616H101.047V477.407Z" fill="#0096D6"/>
<path d="M188.487 480.196H158.743V485.828H188.487V480.196Z" fill="#F8A72D"/>
<path d="M155.652 477.407H144.627V488.616H155.652V477.407Z" fill="#5FC8D7"/>
<path d="M642.745 621.089C642.612 621.51 642.919 626.625 637.326 628.149C631.733 629.673 627.786 630.094 627.104 632.026C626.421 633.971 627.104 633.971 627.104 633.971C627.104 633.971 644.271 633.971 647.683 632.87C648.767 631.074 648.365 621.089 648.365 621.089H642.745Z" fill="#594A42"/>
<path d="M678.27 621.021C678.216 621.443 679.608 626.544 674.349 628.163C669.091 629.795 665.224 630.285 664.956 632.23C664.689 634.176 665.371 634.162 665.371 634.162C665.371 634.162 682.538 633.808 685.709 632.638C686.418 630.815 683.903 620.898 683.903 620.898L678.27 621.021Z" fill="#594A42"/>
<path d="M637.661 498.126C637.661 498.126 634.062 563.124 635.226 575.884C636.403 588.644 641.889 622.531 641.889 622.531H649.342L647.375 573.884C647.375 573.884 653.249 541.195 655.804 535.604C660.715 545.575 663.886 576.115 663.886 576.115L677.186 622.517H685.816C685.816 622.517 676.41 575.476 676.798 574.279C677.186 573.082 681.374 524.204 671.044 500.996C660.34 496.548 637.661 498.126 637.661 498.126Z" fill="#747474"/>
<path opacity="0.5" d="M636.992 511.185C641.983 513.402 655.309 519.007 662.99 519.279C670.857 519.551 675.982 534.488 677.935 544.5C677.681 530.502 676.276 514.463 671.981 503.254C663.926 503.961 650.024 505.253 647.388 506.07C643.655 507.226 639.427 499.962 638.45 500.615C638.25 500.751 637.902 500.914 637.5 501.159C637.38 503.444 637.193 506.927 636.992 511.185Z" fill="#333333"/>
<path d="M699.504 510.451C699.504 510.451 696.989 515.293 694.407 517.606C691.824 519.932 695.705 518.926 697.885 516.395C698.782 515.484 699.076 519.32 698.086 520.531C697.096 521.742 694.607 523.252 694.313 523.564C694.019 523.864 697.297 523.224 699.277 521.918C698.381 523.633 694.808 525.387 695.102 526C695.397 526.612 699.371 526.612 702.448 523.986C705.526 521.361 704.04 512.069 703.84 510.954C703.652 509.838 699.504 510.451 699.504 510.451Z" fill="#F9C4B7"/>
<path d="M630.636 401.73C630.636 401.73 637.112 400.342 640.15 399.798C643.187 399.254 638.424 398.587 635.533 397.975C635.734 396.193 640.591 391.201 642.29 389.527C643.99 387.854 640.404 389.201 638.236 391.173C636.818 392.561 636.176 393.01 636.176 393.01C636.176 393.01 639.507 386.276 639.146 385.052C638.785 383.827 632.429 387.337 630.73 389.01C629.031 390.684 627.398 398.383 627.398 398.383L630.636 401.73Z" fill="#F9C4B7"/>
<path d="M703.906 469.014C703.545 467.885 703.344 466.905 702.782 465.64C702.194 464.402 701.417 462.851 700.842 462.089C699.584 460.158 698.38 458.661 697.149 457.178C694.701 454.24 692.212 451.587 689.696 449.003C687.342 446.608 684.987 444.282 682.592 442.01C682.538 441.97 682.485 441.929 682.444 441.888C678.23 435.317 657.183 436.066 657.183 436.066C657.183 436.066 639.454 437.861 638.624 437.752C635.654 437.331 632.71 436.814 629.9 436.202C629.887 436.025 621.832 433.835 621.243 433.644C620.561 433.413 619.838 433.168 619.357 432.624C618.206 431.318 619.731 427.795 620.186 426.448C621.083 423.686 622.287 420.843 623.585 418.027C626.221 412.409 629.338 406.777 632.616 401.431L626.876 397.037C622.581 402.138 618.607 407.321 614.861 412.926C613.001 415.742 611.208 418.639 609.603 421.85C608.077 425.169 606.338 428.311 606.11 433.821C606.084 435.181 606.338 436.963 607.1 438.8C607.488 439.643 608.265 440.922 608.653 441.317L610.004 442.84C611.824 444.677 613.55 445.847 615.236 446.921C618.594 448.975 621.832 450.417 625.07 451.764C627.572 452.771 630.034 453.655 632.509 454.485C632.897 462.797 635.065 473.258 635.574 482.182C636.457 497.418 636.537 509.076 636.537 509.076C636.537 509.076 658.601 516.259 675.34 509.539C676.156 500.18 678.096 478.971 680.491 464.552C682.391 465.885 688.278 470.537 689.094 471.34C689.683 471.857 689.576 471.925 689.87 472.156C690.111 472.415 690.379 473.108 690.646 473.571C692.801 478.577 694.139 485.515 695.182 492.072C696.239 498.724 697.015 505.567 697.591 512.328L704.763 512.382C705.324 505.335 705.686 498.384 705.739 491.283C705.726 484.114 705.793 477.203 703.906 469.014ZM619.062 433.195C619.022 433.1 619.036 432.896 619.022 432.746C619.049 432.814 619.102 432.882 619.102 432.923C619.25 433.277 619.102 433.467 619.062 433.195Z" fill="#64C2E7"/>
<path d="M661.932 435.494C661.451 432.746 661.531 428.624 661.531 428.624L655.697 429.508C655.697 429.508 655.804 434.882 652.673 437.194C651.737 441.466 656.366 442.609 660.862 438.718C661.785 437.929 662.147 436.691 661.932 435.494Z" fill="#F9C4B7"/>
<path d="M657.276 440.8C657.276 440.8 656.54 438.541 657.999 437.494C659.457 436.433 661.531 435.481 661.999 434.107C662.989 434.95 663.712 436.365 663.618 437.453C663.511 438.541 658.935 443.085 658.935 443.085L657.276 440.8Z" fill="#152F50"/>
<path d="M654.386 435.168C654.386 435.168 653.45 437.235 654.841 438.256C655.216 438.841 655.658 441.793 654.079 442.758C654.079 442.758 651.483 440.31 651.175 437.929C650.975 436.201 653.115 434.909 654.386 435.168Z" fill="#152F50"/>
<path d="M655.952 450.05C656.706 450.05 657.317 449.429 657.317 448.662C657.317 447.896 656.706 447.275 655.952 447.275C655.198 447.275 654.587 447.896 654.587 448.662C654.587 449.429 655.198 450.05 655.952 450.05Z" fill="#152F50"/>
<path d="M655.202 458.879C655.956 458.879 656.567 458.258 656.567 457.491C656.567 456.725 655.956 456.104 655.202 456.104C654.448 456.104 653.837 456.725 653.837 457.491C653.837 458.258 654.448 458.879 655.202 458.879Z" fill="#152F50"/>
<path opacity="0.5" d="M633.714 447.833C633.446 446.173 617.523 448.594 609.897 438.596C608.144 435.807 607.328 430.597 607.448 426.869C606.766 428.787 606.257 430.991 606.137 433.821C606.11 435.181 606.364 436.963 607.127 438.8C607.515 439.643 608.291 440.922 608.679 441.316L610.031 442.84C611.85 444.677 613.576 445.846 615.262 446.921C618.621 448.975 621.859 450.417 625.097 451.764C627.599 452.771 630.061 453.655 632.536 454.485C632.523 454.498 633.981 449.492 633.714 447.833Z" fill="#64C2E7"/>
<path opacity="0.5" d="M655.697 429.508C655.697 429.508 655.724 431.141 655.242 432.977C657.049 433.739 659.31 434.243 661.718 433.753C661.491 431.277 661.531 428.624 661.531 428.624L655.697 429.508Z" fill="#FFBBA6"/>
<path d="M672.878 413.551C672.476 412.205 671.794 410.912 670.804 409.77C668.623 407.212 665.291 405.852 661.986 406.137C655.698 406.899 652.553 412.069 650.466 417.401C648.365 422.734 646.88 426.108 649.569 428.665C652.353 431.304 659.11 430.76 664.649 429.087C670.938 427.169 674.724 419.687 672.878 413.551Z" fill="#F9C4B7"/>
<path d="M653.77 406.083C653.77 406.083 653.904 412.721 665.063 416.762C665.96 418.462 663.993 422.244 660.742 423.414C657.49 424.584 662.802 424.978 665.277 423.414C667.753 421.849 667.418 426.175 665.277 426.488C663.137 426.801 660.501 428.638 661.036 429.944C661.558 431.249 666.094 431.63 671.352 427.196C676.611 422.761 678.925 415.456 677.895 411.674C677.106 408.749 674.189 406.464 671.834 404.845C669.011 402.899 665.692 401.92 662.909 399.866C662.347 399.458 661.009 398.56 661.13 399.893C661.344 402.369 660.313 400.832 659.042 400.056C657.758 399.267 656.473 399.145 656.861 400.968C657.249 402.791 656.62 401.879 655.068 401.226C653.516 400.587 653.57 403.824 653.77 406.083Z" fill="#9D2E24"/>
<path opacity="0.5" d="M675.072 422.883C671.927 422.421 669.8 419.578 670.777 417.034C671.941 413.959 670.576 414.164 663.632 412.871C657.611 411.756 654.573 404.246 653.851 402.233C653.61 403.253 653.664 404.818 653.784 406.097C653.784 406.097 653.918 412.735 665.077 416.775C665.973 418.476 664.006 422.258 660.755 423.428C657.504 424.598 662.816 424.992 665.291 423.428C667.766 421.863 667.432 426.189 665.291 426.502C663.15 426.815 660.514 428.651 661.049 429.957C661.571 431.263 666.107 431.644 671.366 427.209C672.837 425.944 674.055 424.461 675.072 422.883Z" fill="#9D2E24"/>
<path opacity="0.5" d="M694.326 475.23C693.818 473.149 695.999 470.796 695.865 469.748C695.731 468.701 692.908 470.143 691.623 468.578C690.339 467.014 681.869 455.002 681.481 456.117C681.481 456.117 677.681 459.192 676.771 465.871C675.875 472.55 673.935 488.644 671.112 491.255C668.275 493.867 654.119 496.86 660.943 497.853C667.766 498.846 671.888 500.547 670.857 502.642C669.854 504.669 665.96 512.246 636.323 507.797C636.336 508.627 636.336 509.09 636.336 509.09C636.336 509.09 658.4 516.273 675.139 509.552C675.955 500.193 677.895 478.985 680.29 464.565C680.424 464.66 680.598 464.783 680.772 464.919C680.812 464.96 680.866 464.987 680.919 465.028C681.053 465.136 681.214 465.245 681.361 465.354C681.428 465.395 681.481 465.449 681.548 465.49C681.735 465.626 681.936 465.776 682.137 465.939C682.164 465.966 682.19 465.98 682.217 466.007C682.471 466.197 682.739 466.402 683.006 466.619C685.402 468.469 688.318 470.809 688.88 471.353C689.469 471.87 689.362 471.938 689.656 472.169C689.897 472.428 690.165 473.122 690.433 473.584C692.587 478.59 693.925 485.528 694.968 492.085C695.878 497.826 696.547 503.703 697.096 509.539C697.096 509.484 697.109 509.457 697.123 509.403C697.952 501.2 694.848 477.312 694.326 475.23Z" fill="#64C2E7"/>
<path opacity="0.5" d="M645.663 564.525C645.02 571.231 641.622 572.973 641.194 573.612C640.766 574.265 644.82 575.34 645.663 578.373C646.519 581.407 648.7 606.07 648.7 606.097L647.402 573.87C647.402 573.87 653.276 541.181 655.832 535.59C655.832 535.59 652.687 532.026 651.202 529.645C649.703 527.291 646.292 557.818 645.663 564.525Z" fill="#333333"/>
<path d="M101.757 650.119C100.245 647.711 92.7249 649.425 88.751 647.126C85.62 645.317 85.8073 640.379 85.8073 640.379L79.5588 639.413C79.5588 639.413 77.8327 646.623 77.7391 651.507C77.7123 652.853 78.7024 654.01 80.0137 654.227C92.658 656.227 102.466 654.88 102.466 654.88C102.466 654.88 103.269 652.513 101.757 650.119Z" fill="#594A42"/>
<path d="M62.8197 646.732C61.3479 644.406 54.8986 644.501 51.0317 642.27C47.9944 640.515 48.8909 635.835 48.8909 635.835L42.8966 634.91C42.8966 634.91 40.4346 641.78 40.3543 646.514C40.3276 647.82 41.2775 648.949 42.5487 649.14C54.8049 651.072 63.4887 651.33 63.4887 651.33C63.4887 651.33 64.2915 649.058 62.8197 646.732Z" fill="#594A42"/>
<path d="M93.9958 587.923L89.9015 523.496L54.4573 522.938C54.4573 522.938 50.7911 530.869 50.3228 538.963C49.8545 547.058 51.1925 573.476 51.1925 573.476L50.6172 582.318L50.7643 581.475L41.3982 636.583L49.0517 638.447L65.2284 584.998L65.3755 584.155L70.6072 548.486L79.2107 589.379L78.6219 641.875L86.4092 642.583L94.036 589.297L94.0761 588.998L93.9958 587.923Z" fill="#29A87C"/>
<path opacity="0.5" d="M89.9014 523.51L54.6847 522.952C54.6044 522.952 54.5375 522.952 54.4572 522.952C54.4439 522.993 52.1157 528.026 50.9382 534.161C57.3072 534.542 69.1219 534.773 74.9022 538.582C81.8331 543.14 88.5768 554.172 92.3099 561.464L89.9014 523.51Z" fill="#29A87C"/>
<path opacity="0.5" d="M63.7028 555.465C61.1472 560.621 63.2345 577.285 61.4549 580.006C59.662 582.727 56.0895 580.659 58.4711 582.754C60.8528 584.849 54.4705 620.463 54.4705 620.463L65.2014 584.998L65.3486 584.155L70.5802 548.486C70.5936 548.486 66.2584 550.309 63.7028 555.465Z" fill="#29A87C"/>
<path d="M84.3623 416.762C81.4588 412.15 73.0426 411.293 66.8342 415.878C60.6258 420.462 65.5764 432.583 65.5764 432.583C70.4201 443.316 82.3686 443.956 85.3123 439.317C88.2559 434.664 87.2792 421.374 84.3623 416.762Z" fill="#5E4134"/>
<path d="M78.8229 439.113C78.8229 439.113 77.806 447.982 80.8968 453.097C80.8968 453.097 75.8659 453.628 72.1194 452.934C68.3596 452.24 73.3638 436.338 73.3638 436.338C73.3638 436.338 77.2975 436.338 78.8229 439.113Z" fill="#5E4134"/>
<path d="M81.2983 407.661C76.5617 407.457 70.6209 408.559 66.0716 410.613C62.0977 412.395 59.7963 416.639 60.3047 421.033C61.0942 427.713 63.6632 434.719 66.2857 438.555C69.7378 443.588 79.4786 444.962 80.6694 442.105C81.8736 439.249 80.0673 436.079 78.1673 434.46C76.254 432.855 78.5286 428.679 80.0138 429.903C81.5124 431.127 82.2617 435.943 83.6398 434.555C85.018 433.182 78.7694 424.394 82.6497 423.958C85.4863 423.632 87.6807 421.36 89.1257 418.639C90.2095 416.599 90.8652 414.313 91.0659 412.409C91.6144 407.022 84.737 407.797 81.2983 407.661Z" fill="#0B5F99"/>
<path d="M68.4933 446.078C68.4933 446.078 70.9954 444.527 74.1397 445.262C77.2841 446.01 80.9904 447.561 80.9904 447.561L82.5693 452.295C82.5693 452.295 76.6285 450.812 73.3637 450.975C70.0855 451.138 66.5933 451.193 68.4933 446.078Z" fill="#A59C9A"/>
<path d="M36.6617 516.803C36.6617 516.803 38.7891 524.87 39.8595 526.584C40.93 528.298 38.6821 527.673 37.4243 525.482C36.1666 523.292 35.899 524.666 36.006 525.428C36.1131 526.19 36.849 530.965 36.675 532.053C36.5145 533.141 35.8722 531.93 35.4039 530.162C34.9222 528.38 34.5743 527.292 34.5743 527.292C34.5743 527.292 34.561 532.039 33.5441 532.475C32.5272 532.924 30.3061 529.631 29.5032 527.577C28.7004 525.537 32.6075 516.531 32.6075 516.531L36.6617 516.803Z" fill="#5E4134"/>
<path d="M146.554 436.406C146.554 436.406 151.799 429.332 154.1 426.937C156.402 424.53 160.737 421.863 161.326 422.475C161.914 423.101 158.329 425.713 157.713 426.774C157.098 427.835 159.493 428.57 160.496 430.801C161.513 433.032 160.028 435.848 158.208 436.651C156.388 437.453 153.913 437.181 152.91 438.079C151.919 438.977 150.006 440.446 150.006 440.446L146.554 436.406Z" fill="#5E4134"/>
<path d="M147.423 434.746C142.339 439.276 137.843 444.309 132.638 448.635C130.029 450.798 127.406 452.934 124.784 454.947C123.473 455.954 122.148 456.933 120.877 457.804C120.248 458.226 119.592 458.688 119.057 458.96C118.816 459.083 118.402 459.369 118.321 459.355C118.214 459.341 118.161 459.382 118.08 459.382C117.799 459.219 116.461 459.382 115.003 459.246C113.625 459.192 112.006 459.015 110.467 458.838C107.336 458.484 104.071 457.927 100.847 457.369C98.7728 457.001 79.3447 449.438 75.4912 448.771C74.5813 448.608 73.618 448.554 72.6947 448.608C64.5596 449.071 59.1004 450.771 55.8624 453.818C55.2068 454.322 54.5913 454.879 54.0561 455.573C52.3301 457.831 50.6441 460.103 48.9449 462.416C45.185 467.599 41.5188 472.714 38.0801 478.686C36.3006 481.624 34.6816 485.76 34.0527 489.025C33.3034 492.412 32.8485 495.663 32.514 498.887C31.8717 505.349 31.6309 511.647 31.6309 518.041L37.3844 518.544C38.5484 512.559 39.9935 506.519 41.7195 500.764C42.6026 497.894 43.5794 495.078 44.7033 492.548C45.8808 489.868 46.9244 488.317 48.7709 486.222C49.8547 484.971 51.0322 483.719 52.2498 482.468C51.8617 498.193 50.7378 517.66 50.3498 529.944C67.3025 536.447 91.32 531.631 91.32 531.631C91.32 531.631 91.5876 502.819 94.3439 492.167C95.5481 487.555 96.8059 481.338 97.4348 475.298C98.2376 475.271 99.027 475.258 99.8298 475.217C103.362 475.026 106.881 474.809 110.534 474.401C112.38 474.183 114.173 473.979 116.167 473.598C118.08 473.244 120.141 472.891 123.058 471.625C123.727 471.272 124.396 470.85 125.038 470.428C125.694 469.993 125.935 469.721 126.39 469.354C127.259 468.646 127.888 467.993 128.571 467.327C129.909 466.007 131.14 464.701 132.33 463.382C134.725 460.756 136.987 458.103 139.221 455.451C143.69 450.118 148.012 444.745 152.28 439.29L147.423 434.746Z" fill="#877F7D"/>
<path opacity="0.5" d="M75.504 421.02C71.5301 422.04 73.8449 430.692 68.7738 430.733C65.9238 430.76 63.9569 430.815 62.4048 430.175C63.5153 433.508 64.8935 436.474 66.2984 438.528C69.7505 443.561 79.4913 444.935 80.6821 442.078C81.8864 439.222 80.08 436.052 78.1801 434.433C76.2667 432.828 78.5413 428.652 80.0265 429.876C81.5251 431.1 82.2744 435.916 83.6526 434.528C85.0307 433.154 78.7822 424.366 82.6624 423.931C85.499 423.605 87.6934 421.333 89.1384 418.612C90.2222 416.571 90.8779 414.286 91.0786 412.382C91.0786 412.395 88.3892 420.721 75.504 421.02Z" fill="#0B5F99"/>
<path opacity="0.5" d="M122.041 467.014C117.438 468.32 105.489 469.884 94.0492 468.837C87.7204 470.401 88.0014 482.631 87.0915 498.778C86.1817 514.926 85.3387 515.048 80.8965 516.545C76.4543 518.041 76.8824 520.653 80.8965 521.17C84.7634 521.673 76.7353 532.311 50.3896 527.673C50.3628 528.448 50.3361 529.21 50.3093 529.944C67.2621 536.447 91.2795 531.631 91.2795 531.631C91.2795 531.631 91.5472 502.819 94.3035 492.167C95.5077 487.555 96.7654 481.338 97.3943 475.298C98.1971 475.271 98.9865 475.258 99.7894 475.217C103.322 475.026 106.841 474.809 110.494 474.401C112.34 474.183 114.133 473.979 116.127 473.598C118.04 473.244 120.101 472.891 123.017 471.625C123.686 471.272 124.355 470.85 124.998 470.428C125.653 469.993 125.894 469.721 126.349 469.354C127.219 468.646 127.848 467.993 128.53 467.327C129.868 466.007 131.099 464.701 132.29 463.382C134.685 460.756 136.946 458.103 139.181 455.451C140.599 453.764 141.977 452.05 143.369 450.363C142.285 451.37 126.483 465.762 122.041 467.014Z" fill="#877F7D"/>
<path opacity="0.5" d="M41.3847 486.589C40.341 490.29 38.7488 511.947 38.7488 511.947C38.7488 511.947 38.7755 511.892 38.8157 511.824C39.672 508.083 40.6086 504.369 41.6924 500.764C42.5755 497.894 43.5523 495.078 44.6762 492.548C45.8537 489.868 46.8973 488.317 48.7438 486.222C49.8276 484.971 51.005 483.719 52.2226 482.468C52.2226 482.468 54.2832 468.524 54.4839 466.878C54.6712 465.245 42.4417 482.903 41.3847 486.589Z" fill="#877F7D"/>
</svg>
