<svg width="31" height="51" viewBox="0 0 31 51" fill="none" xmlns="http://www.w3.org/2000/svg">
<path d="M0 0V8.68874L17.2342 14.2947L30.5763 9.95374V9.94475L0 0Z" fill="#8BD3E6"/>
<path d="M0 11.2076V19.894L0.0067336 19.8963L13.3645 15.553L0 11.2076Z" fill="#8BD3E6"/>
<path d="M17.2343 25.5001L30.5763 21.1614V21.1524L26.7201 19.8964L13.3623 24.2419L17.2343 25.5001Z" fill="#8BD3E6"/>
<path d="M17.2343 36.7074L30.5763 32.3664V32.3574L26.7201 31.1036L13.3623 35.4469L17.2343 36.7074Z" fill="#8BD3E6"/>
<path d="M9.49252 25.4998L0 28.5871V31.1013L0.0067336 31.1036L13.3645 26.7581L9.49252 25.4998Z" fill="#8BD3E6"/>
<path d="M0 31.1059V39.7946L13.3645 35.4469L0.0067336 31.1036L0 31.1059Z" fill="#343741"/>
<path d="M13.3623 26.7581L26.7201 31.1036L30.5763 29.8476V29.8386L17.2343 25.4998L13.3623 26.7581Z" fill="#343741"/>
<path d="M30.5762 29.8409V21.1611L17.2341 25.4999L30.5762 29.8409Z" fill="#0084D4"/>
<path d="M0.00683594 31.1037L13.3624 35.4469L26.7201 31.1037L13.3624 26.7604L0.00683594 31.1037Z" fill="#0084D4"/>
<path d="M0 42.3112V50.9999L30.5763 41.0552V41.0462L17.2342 36.7074L0 42.3112Z" fill="#343741"/>
<path d="M30.5762 41.0464V32.3666L17.2341 36.7076L30.5762 41.0464Z" fill="#0084D4"/>
<path d="M13.3623 15.5529L26.7201 19.8962L30.5763 18.6424V18.6334L17.2343 14.2946L13.3623 15.5529Z" fill="#343741"/>
<path d="M13.3623 24.2419L0.0067336 19.8964L0 19.8986V22.4129L9.49252 25.5001L13.3623 24.2419Z" fill="#343741"/>
<path d="M30.5762 18.6336V9.95386L17.2341 14.2949L30.5762 18.6336Z" fill="#0084D4"/>
<path d="M0.00683594 19.8961L13.3624 24.2416L26.7201 19.8961L13.3624 15.5529L0.00683594 19.8961Z" fill="#0084D4"/>
<path d="M0 22.4127V28.5872L9.49252 25.5L0 22.4127Z" fill="#0084D4"/>
</svg>
