<svg width="73" height="73" viewBox="0 0 73 73" fill="none" xmlns="http://www.w3.org/2000/svg">
<g filter="url(#filter0_d_44_52862)">
<rect x="10" y="6" width="53" height="53" rx="4" fill="white"/>
<rect x="10.5" y="6.5" width="52" height="52" rx="3.5" stroke="#C5E3FF"/>
<path d="M44.1249 15.59L51.0799 22.84V50.41H25.0986V50.5H51.1686V22.9312L44.1249 15.59Z" fill="#909090"/>
<path d="M44.0388 15.5H25.01V50.41H51.08V22.8413L44.0388 15.5Z" fill="#F4F4F4"/>
<path d="M24.8188 17.375H16.8313V25.9087H41.9563V17.375H24.8188Z" fill="#7A7B7C"/>
<path d="M42.0899 25.7638H16.9937V17.2238H42.0899V25.7638Z" fill="#DD2025"/>
<path d="M25.3149 18.6675H23.6812V24.6675H24.9662V22.6437L25.2499 22.66C25.5256 22.6552 25.7987 22.6059 26.0587 22.5137C26.2865 22.4354 26.4962 22.3116 26.6749 22.15C26.8568 21.996 27.0002 21.8017 27.0937 21.5825C27.219 21.2181 27.2638 20.8309 27.2249 20.4475C27.2171 20.1736 27.1691 19.9024 27.0824 19.6425C27.0035 19.4549 26.8864 19.2857 26.7385 19.1459C26.5907 19.006 26.4153 18.8984 26.2237 18.83C26.0579 18.77 25.8867 18.7264 25.7124 18.7C25.5804 18.6796 25.4472 18.6688 25.3137 18.6675M25.0774 21.535H24.9662V19.685H25.2074C25.3139 19.6773 25.4207 19.6937 25.52 19.7328C25.6193 19.772 25.7086 19.833 25.7812 19.9112C25.9316 20.1125 26.0119 20.3575 26.0099 20.6087C26.0099 20.9162 26.0099 21.195 25.7324 21.3912C25.5325 21.5012 25.3049 21.5519 25.0774 21.535ZM29.6662 18.6512C29.5274 18.6512 29.3924 18.6612 29.2974 18.665L28.9999 18.6725H28.0249V24.6725H29.1724C29.6109 24.6845 30.0475 24.6102 30.4574 24.4537C30.7873 24.3229 31.0794 24.112 31.3074 23.84C31.5291 23.5656 31.6882 23.246 31.7737 22.9037C31.8719 22.5161 31.9198 22.1174 31.9162 21.7175C31.9404 21.2452 31.9039 20.7717 31.8074 20.3087C31.7159 19.9679 31.5445 19.6539 31.3074 19.3925C31.1214 19.1814 30.8937 19.0112 30.6387 18.8925C30.4196 18.7911 30.1892 18.7164 29.9524 18.67C29.8582 18.6544 29.7628 18.6473 29.6674 18.6487M29.4399 23.57H29.3149V19.74H29.3312C29.5889 19.7103 29.8496 19.7568 30.0812 19.8737C30.2507 20.0091 30.3889 20.1797 30.4862 20.3737C30.5911 20.5779 30.6516 20.802 30.6637 21.0312C30.6749 21.3062 30.6637 21.5312 30.6637 21.7175C30.6687 21.932 30.6549 22.1466 30.6224 22.3587C30.5839 22.5765 30.5127 22.7872 30.4112 22.9837C30.2963 23.1664 30.141 23.3204 29.9574 23.4337C29.8032 23.5335 29.6206 23.58 29.4374 23.5662M35.7874 18.6725H32.7499V24.6725H34.0349V22.2925H35.6599V21.1775H34.0349V19.7875H35.7849V18.6725" fill="#464648"/>
<path d="M41.2264 38.3188C41.2264 38.3188 45.2114 37.5963 45.2114 38.9575C45.2114 40.3188 42.7426 39.765 41.2264 38.3188ZM38.2801 38.4225C37.647 38.5624 37.03 38.7672 36.4389 39.0338L36.9389 37.9088C37.4389 36.7838 37.9576 35.25 37.9576 35.25C38.5542 36.2542 39.2484 37.1971 40.0301 38.065C39.4406 38.1529 38.8564 38.2731 38.2801 38.425V38.4225ZM36.7026 30.2975C36.7026 29.1113 37.0864 28.7875 37.3851 28.7875C37.6839 28.7875 38.0201 28.9313 38.0314 29.9613C37.934 30.997 37.7172 32.0179 37.3851 33.0038C36.9303 32.1761 36.6949 31.2457 36.7014 30.3013L36.7026 30.2975ZM30.8914 43.4425C29.6689 42.7113 33.4551 40.46 34.1414 40.3875C34.1376 40.3888 32.1714 44.2075 30.8914 43.4425ZM46.3751 39.1188C46.3626 38.9938 46.2501 37.61 43.7876 37.6688C42.7612 37.6522 41.7353 37.7246 40.7214 37.885C39.7392 36.8955 38.8934 35.7794 38.2064 34.5663C38.6392 33.3155 38.9011 32.0121 38.9851 30.6913C38.9489 29.1913 38.5901 28.3313 37.4401 28.3438C36.2901 28.3563 36.1226 29.3625 36.2739 30.86C36.422 31.8663 36.7015 32.8489 37.1051 33.7825C37.1051 33.7825 36.5739 35.4363 35.8714 37.0813C35.1689 38.7263 34.6889 39.5888 34.6889 39.5888C33.4673 39.9864 32.3173 40.5773 31.2826 41.3388C30.2526 42.2975 29.8339 43.0338 30.3764 43.77C30.8439 44.405 32.4801 44.5488 33.9426 42.6325C34.7197 41.6428 35.4296 40.6021 36.0676 39.5175C36.0676 39.5175 38.2976 38.9063 38.9914 38.7388C39.6851 38.5713 40.5239 38.4388 40.5239 38.4388C40.5239 38.4388 42.5601 40.4875 44.5239 40.415C46.4876 40.3425 46.3926 39.2413 46.3801 39.1213" fill="#DD2025"/>
<path d="M43.9424 15.5962V22.9374H50.9836L43.9424 15.5962Z" fill="#909090"/>
<path d="M44.0388 15.5V22.8413H51.0801L44.0388 15.5Z" fill="#F4F4F4"/>
<path d="M25.2187 18.5713H23.585V24.5713H24.875V22.5488L25.16 22.565C25.4357 22.5603 25.7088 22.5109 25.9687 22.4188C26.1966 22.3404 26.4062 22.2166 26.585 22.055C26.7655 21.9007 26.9076 21.7064 27 21.4875C27.1253 21.1232 27.1701 20.7359 27.1312 20.3525C27.1234 20.0787 27.0754 19.8074 26.9887 19.5475C26.9098 19.3599 26.7927 19.1908 26.6449 19.0509C26.497 18.911 26.3217 18.8035 26.13 18.735C25.9635 18.6745 25.7914 18.6305 25.6162 18.6038C25.4842 18.5834 25.351 18.5726 25.2175 18.5713M24.9812 21.4388H24.87V19.5888H25.1125C25.2189 19.5811 25.3258 19.5975 25.4251 19.6366C25.5244 19.6758 25.6136 19.7368 25.6862 19.815C25.8366 20.0163 25.917 20.2613 25.915 20.5125C25.915 20.82 25.915 21.0988 25.6375 21.295C25.4375 21.405 25.21 21.4545 24.9825 21.4375M29.57 18.555C29.4312 18.555 29.2962 18.565 29.2012 18.5688L28.9075 18.5763H27.9325V24.5763H29.08C29.5185 24.5883 29.9551 24.514 30.365 24.3575C30.6949 24.2267 30.987 24.0158 31.215 23.7438C31.4367 23.4694 31.5958 23.1498 31.6812 22.8075C31.7794 22.4199 31.8273 22.0212 31.8237 21.6213C31.848 21.149 31.8114 20.6755 31.715 20.2125C31.6234 19.8717 31.452 19.5577 31.215 19.2963C31.029 19.0852 30.8013 18.915 30.5462 18.7963C30.3272 18.6949 30.0968 18.6202 29.86 18.5738C29.7658 18.5582 29.6704 18.5511 29.575 18.5525M29.3475 23.4738H29.2225V19.6438H29.2387C29.4964 19.6141 29.7571 19.6606 29.9887 19.7775C30.1583 19.913 30.2965 20.0835 30.3937 20.2775C30.4987 20.4817 30.5592 20.7058 30.5712 20.935C30.5825 21.21 30.5712 21.435 30.5712 21.6213C30.5763 21.8358 30.5625 22.0504 30.53 22.2625C30.4914 22.4803 30.4202 22.691 30.3187 22.8875C30.2038 23.0702 30.0486 23.2242 29.865 23.3375C29.7107 23.4373 29.5281 23.4838 29.345 23.47M35.6912 18.5763H32.6537V24.5763H33.9387V22.1963H35.5637V21.0813H33.9387V19.6913H35.6887V18.5763" fill="white"/>
</g>
<defs>
<filter id="filter0_d_44_52862" x="0" y="0" width="73" height="73" filterUnits="userSpaceOnUse" color-interpolation-filters="sRGB">
<feFlood flood-opacity="0" result="BackgroundImageFix"/>
<feColorMatrix in="SourceAlpha" type="matrix" values="0 0 0 0 0 0 0 0 0 0 0 0 0 0 0 0 0 0 127 0" result="hardAlpha"/>
<feOffset dy="4"/>
<feGaussianBlur stdDeviation="5"/>
<feComposite in2="hardAlpha" operator="out"/>
<feColorMatrix type="matrix" values="0 0 0 0 0 0 0 0 0 0 0 0 0 0 0 0 0 0 0.04 0"/>
<feBlend mode="normal" in2="BackgroundImageFix" result="effect1_dropShadow_44_52862"/>
<feBlend mode="normal" in="SourceGraphic" in2="effect1_dropShadow_44_52862" result="shape"/>
</filter>
</defs>
</svg>
